<svg xmlns="http://www.w3.org/2000/svg" width="114.338" height="105.496" viewBox="0 0 114.338 105.496">
  <g id="Group_687" data-name="Group 687" transform="translate(-5532.789 23141.449)">
    <g id="Group_685" data-name="Group 685">
      <g id="Group_683" data-name="Group 683">
        <g id="Group_682" data-name="Group 682">
          <rect id="Rectangle_509" data-name="Rectangle 509" width="73.409" height="16.435" rx="8.218" transform="translate(5570.526 -23118.264)" fill="#d11b28" opacity="0.4"/>
          <rect id="Rectangle_510" data-name="Rectangle 510" width="49.705" height="16.435" rx="8.218" transform="translate(5532.789 -23081.457)" fill="#d11b28" opacity="0.4"/>
          <rect id="Rectangle_511" data-name="Rectangle 511" width="86.633" height="13.191" rx="6.595" transform="translate(5560.494 -23049.145)" fill="#d11b28" opacity="0.4"/>
          <circle id="Ellipse_22" data-name="Ellipse 22" cx="2.629" cy="2.629" r="2.629" transform="translate(5540.317 -23059.557)" fill="#d11b28"/>
          <circle id="Ellipse_23" data-name="Ellipse 23" cx="2.673" cy="2.673" r="2.673" transform="translate(5637.873 -23090)" fill="#d11b28"/>
          <circle id="Ellipse_24" data-name="Ellipse 24" cx="2.673" cy="2.673" r="2.673" transform="translate(5579.59 -23141.449)" fill="#d11b28"/>
        </g>
      </g>
      <g id="Group_686" data-name="Group 686" transform="translate(-339.703 -18605.199)">
        <path id="Path_2898" data-name="Path 2898" d="M5996.5-4398.82c-1.518-.132-3.036-.258-4.553-.4-5.112-.467-10.184-1.186-14.936-3.234a22.791,22.791,0,0,1-4.974-2.887c-4.228-3.3-5.233-8.356-2.792-13.136a15.412,15.412,0,0,1,5.909-6.069,37.123,37.123,0,0,1,13.487-4.624,7.166,7.166,0,0,0,.881-.162c.346-.105.676-.264,1.014-.4a4.318,4.318,0,0,0-.584-.959,25.95,25.95,0,0,1-6.842-10.511,42.883,42.883,0,0,1-2.064-15.527,26.424,26.424,0,0,1,1.755-9.451,15.112,15.112,0,0,1,12.417-9.7,39.073,39.073,0,0,1,12.623.076c7.139,1.294,11.3,5.838,12.977,12.715a36.069,36.069,0,0,1,.524,13.191,52.816,52.816,0,0,1-1.542,7.806,25.31,25.31,0,0,1-7.163,11.446,3.822,3.822,0,0,0-.57.877c3.585.963,7.054,1.742,10.417,2.839a19.611,19.611,0,0,1,8.926,5.631c3.034,3.486,4.242,7.421,2.406,11.9a11.414,11.414,0,0,1-4.773,5.218,28.862,28.862,0,0,1-11,3.922c-3.6.578-7.254.854-10.883,1.269-.359.041-.715.109-1.073.165Zm4.223-5.962a77.536,77.536,0,0,0,18.428-1.838,19.353,19.353,0,0,0,7.547-3.233c2.063-1.612,2.535-3.618,1.272-5.907a7.844,7.844,0,0,0-2.076-2.506,24.212,24.212,0,0,0-4.52-2.679,38.758,38.758,0,0,0-12.181-2.824c-2.071-.2-3.136-1.286-3.15-3.349-.009-1.364.04-2.729-.014-4.091a3.482,3.482,0,0,1,1.5-3.072,18.172,18.172,0,0,0,6.174-8.53,36.381,36.381,0,0,0,1.328-18.5c-.945-5.129-4.14-8.22-8.944-8.706a65.255,65.255,0,0,0-8.465-.109,11.948,11.948,0,0,0-3.79.747c-4.252,1.6-5.88,5.159-6.481,9.307a40.88,40.88,0,0,0,.164,11.731c.834,5.8,3.175,10.732,7.916,14.364a2.893,2.893,0,0,1,1.142,2.435c0,1.464.011,2.928,0,4.392-.019,2.121-1.08,3.184-3.224,3.387a41.936,41.936,0,0,0-11.635,2.589,14.731,14.731,0,0,0-6.259,4.127c-2.355,2.881-1.988,5.747,1.176,7.665a23.051,23.051,0,0,0,5.359,2.337C5988.256-4405.187,5994.731-4404.835,6000.718-4404.782Z" transform="translate(-71.18 -40.507)" fill="#333"/>
        <path id="Path_2899" data-name="Path 2899" d="M5879-4466.731c2.245-6.7,7.708-9.6,13.872-11.546,2.712-.856,5.54-1.349,8.5-2.051a2.681,2.681,0,0,0-.443-.825c-5.867-5.366-8.287-12.272-8.962-19.964a39.558,39.558,0,0,1,.618-12.7,16.234,16.234,0,0,1,14.231-12.8,7.725,7.725,0,0,1,1.974-.137,2.914,2.914,0,0,1,2.479,2.733,2.931,2.931,0,0,1-2.13,3.015c-.892.249-1.828.337-2.729.556a10.408,10.408,0,0,0-8.23,9.059,40.447,40.447,0,0,0,.841,15.931,19.167,19.167,0,0,0,6.9,10.581,3.452,3.452,0,0,1,1.438,3c-.039,1.429.006,2.861-.014,4.29a2.962,2.962,0,0,1-2.876,3.084,40.507,40.507,0,0,0-12.288,2.8,20.6,20.6,0,0,0-4.762,2.835,9.552,9.552,0,0,0-2.367,3.354c-.6,1.286-1.284,2.247-2.756,2.38-1.447.131-2.378-.512-3.15-2.083-.025-.052-.1-.082-.144-.123Z" transform="translate(0 -0.145)" fill="#333"/>
        <path id="Path_2900" data-name="Path 2900" d="M6239.443-4480.461c2.79.633,5.4,1.133,7.955,1.827a26.028,26.028,0,0,1,9.531,4.62,13.2,13.2,0,0,1,4.792,6.816,2.982,2.982,0,0,1-1.949,3.816,2.925,2.925,0,0,1-3.734-1.944,8.99,8.99,0,0,0-4.13-4.931,28.451,28.451,0,0,0-9.974-3.585c-1.857-.354-3.743-.568-5.621-.809a2.966,2.966,0,0,1-2.754-2.9,37.865,37.865,0,0,1,.04-4.983,3.491,3.491,0,0,1,1.106-2.217c4.879-3.79,7.2-8.9,7.993-14.868a40.391,40.391,0,0,0,.085-11.333c-.9-6.068-4.185-9.234-10.252-10.024a3,3,0,0,1-2.854-2.7,2.944,2.944,0,0,1,3.146-3.275,16.837,16.837,0,0,1,15.9,14.953,46.856,46.856,0,0,1-1.143,18.289,26.092,26.092,0,0,1-7.388,12.216A7.075,7.075,0,0,0,6239.443-4480.461Z" transform="translate(-280.658)" fill="#333"/>
      </g>
    </g>
  </g>
</svg>
