<svg xmlns="http://www.w3.org/2000/svg" width="131.146" height="114.674" viewBox="0 0 131.146 114.674">
  <g id="Group_509" data-name="Group 509" transform="translate(-125.999 -730.511)">
    <circle id="Ellipse_22" data-name="Ellipse 22" cx="2.629" cy="2.629" r="2.629" transform="translate(140.527 770.954)" fill="#8421f8" opacity="0.474"/>
    <g id="Group_505" data-name="Group 505" transform="translate(125.999 730.512)">
      <circle id="Ellipse_23" data-name="Ellipse 23" cx="2.673" cy="2.673" r="2.673" transform="translate(69.084)" fill="#8421f8" opacity="0.474"/>
      <circle id="Ellipse_24" data-name="Ellipse 24" cx="2.673" cy="2.673" r="2.673" transform="translate(125.801 58.551)" fill="#8421f8" opacity="0.474"/>
      <rect id="Rectangle_509" data-name="Rectangle 509" width="73.409" height="16.435" rx="8.218" transform="translate(57.737 21.736)" fill="#6359fa" opacity="0.4"/>
      <rect id="Rectangle_510" data-name="Rectangle 510" width="35.705" height="16.435" rx="8.218" transform="translate(0 56.544)" fill="#6359fa" opacity="0.4"/>
      <rect id="Rectangle_511" data-name="Rectangle 511" width="86.633" height="13.191" rx="6.595" transform="translate(35.705 83.856)" fill="#6359fa" opacity="0.4"/>
      <g id="gear" transform="translate(15.899 8.236)">
        <path id="Path_2781" data-name="Path 2781" d="M3004.61-3539.418a50.575,50.575,0,0,0-13.744,13.75c1.808,1.913,3.565,3.783,5.334,5.643,1.665,1.751,1.6,2.067.586,4.178a55.682,55.682,0,0,0-2.586,6.514c-.567,1.7-.985,2.169-2.8,2.175-2.353.008-4.706-.031-7.057.038-.388.011-1.053.424-1.1.728a45.491,45.491,0,0,0,.073,15.75,4.344,4.344,0,0,0,.244.622h8.058c2.382,0,2.677.328,3.379,2.631.7,2.285,1.536,4.531,2.425,6.75a2.415,2.415,0,0,1-.573,3c-2,1.827-4,3.649-6.031,5.5a54.008,54.008,0,0,0,14,14.161l5.654-5.322c1.473-1.386,1.943-1.355,3.761-.537,2.137.961,4.356,1.741,6.552,2.567,2.075.781,2.333,1.113,2.335,3.289,0,2.477,0,4.954,0,7.509a49.654,49.654,0,0,0,19.267.011c0-2.594,0-5.156,0-7.718,0-1.858.3-2.261,2-3q3.165-1.381,6.287-2.859a2.306,2.306,0,0,1,3.184.633c1.5,1.635,2.993,3.278,4.555,4.851a1.361,1.361,0,0,0,1.269.233,51.4,51.4,0,0,0,12.818-13.19c-1.839-1.951-3.652-3.882-5.473-5.8-1.47-1.552-1.41-1.967-.528-3.855a62.058,62.058,0,0,0,2.707-6.89,2.352,2.352,0,0,1,2.444-1.956c2.442,0,4.883-.024,7.324.007.729.009,1.119-.135,1.239-.968a53.475,53.475,0,0,0,.018-15.119c-.122-.873-.5-1.079-1.3-1.066-2.4.038-4.794.022-7.191.005-1.547-.011-2.12-.5-2.5-2.007-.219-.858-.526-1.694-.725-2.556a2.107,2.107,0,0,1,1.461-2.727,1.959,1.959,0,0,1,2.475,1.6c.3,1.343,1.014,1.6,2.242,1.544,2.082-.093,4.171-.031,6.257-.023,1.745.007,2.5.581,2.887,2.306a45.926,45.926,0,0,1,.948,13.753,62.782,62.782,0,0,1-1,7.1c-.372,1.885-1.082,2.316-2.984,2.321-2.571.006-5.141,0-7.59,0-.861,1.982-1.706,3.828-2.439,5.718-.115.3.182.884.457,1.184,1.676,1.835,3.4,3.622,5.106,5.434,1.126,1.2,1.2,1.928.287,3.313a57.844,57.844,0,0,1-16.132,16.409c-1.655,1.108-2.339,1.032-3.7-.389-1.5-1.574-3.035-3.121-4.459-4.762a1.244,1.244,0,0,0-1.9-.31,4.3,4.3,0,0,1-1.451.65c-2.207.419-2.642,1.818-2.461,3.837a56.471,56.471,0,0,1,.03,5.723,2.118,2.118,0,0,1-1.982,2.385,55.013,55.013,0,0,1-23.5.026c-1.646-.356-2.115-.938-2.122-2.669-.01-2.309-.061-4.618.02-6.924a1.475,1.475,0,0,0-1.3-1.754,10.3,10.3,0,0,1-2.858-1.056c-1.513-.926-2.521-.481-3.623.718-1.349,1.467-2.878,2.768-4.337,4.132-1.2,1.117-1.982,1.205-3.314.326a57.92,57.92,0,0,1-16.557-16.539c-.926-1.4-.831-2.188.352-3.413,1.727-1.788,3.5-3.537,5.163-5.378a1.969,1.969,0,0,0,.323-1.584c-.38-1.407-.978-2.754-1.4-4.152a1.136,1.136,0,0,0-1.318-.941c-2.485.046-4.971.025-7.457.015-1.677-.007-2.455-.4-2.8-2.055a42.886,42.886,0,0,1-1.277-8.643,97.1,97.1,0,0,1,1-12.29c.278-2.139,1.037-2.5,3.222-2.5,2.219,0,4.439-.026,6.658.021a1.088,1.088,0,0,0,1.214-.892,43.559,43.559,0,0,1,1.8-4.42,1.173,1.173,0,0,0-.258-1.6c-1.735-1.779-3.431-3.6-5.133-5.409-1.146-1.219-1.236-1.954-.344-3.306a56,56,0,0,1,16.41-16.485c1.621-1.05,2.3-.952,3.726.415,1.729,1.659,3.5,3.277,5.208,4.958a1.349,1.349,0,0,0,1.751.31,30.316,30.316,0,0,1,3.974-1.5,1.425,1.425,0,0,0,1.173-1.7c-.066-2.262-.03-4.527-.023-6.791.006-1.9.433-2.453,2.251-2.84a54.884,54.884,0,0,1,23.368.055,2.161,2.161,0,0,1,1.995,2.511c.012,2.353.037,4.706-.017,7.057-.02.86.139,1.429,1.056,1.689a3.762,3.762,0,0,1,1.385.767,1.858,1.858,0,0,1,.495,2.506,1.9,1.9,0,0,1-2.472.981q-1.685-.61-3.332-1.323a2.195,2.195,0,0,1-1.295-2.27c.013-2.659,0-5.317,0-8.1a49.716,49.716,0,0,0-19.263-.02v1.794c0,2.131-.01,4.261,0,6.392a2.288,2.288,0,0,1-1.591,2.349q-4.141,1.626-8.266,3.289a2.206,2.206,0,0,1-2.512-.705C3008.724-3535.522,3006.7-3537.444,3004.61-3539.418Z" transform="translate(-2978.57 3551.81)" fill="#8522fa"/>
        <path id="Path_2782" data-name="Path 2782" d="M3066.283-3436.877c.116,13.255,8.966,23.97,22.077,26.156,17.05,2.842,31.185-9.546,31.358-25.956a28.674,28.674,0,0,0-.139-3.186,2.182,2.182,0,0,1,1.812-2.625,2.093,2.093,0,0,1,2.264,1.948,28.293,28.293,0,0,1-1.33,12.984,31.282,31.282,0,0,1-30.373,21.384c-15-.437-28.014-12.765-29.586-27.6a31.217,31.217,0,0,1,26.194-33.745,28.757,28.757,0,0,1,10.064.2c1.649.323,2.416,1.257,2.162,2.616-.235,1.259-1.3,1.8-2.919,1.49a26.181,26.181,0,0,0-31.255,22.629C3066.464-3439.352,3066.391-3438.113,3066.283-3436.877Z" transform="translate(-3039.926 3490.229)" fill="#8522fa"/>
        <path id="Path_2783" data-name="Path 2783" d="M3224.5-3532.09a7.825,7.825,0,0,1-.974,1.542q-18.808,18.856-37.657,37.672a2.127,2.127,0,0,1-3.177.173c-.888-.927-.757-2.085.411-3.254q13.835-13.848,27.68-27.687c2.793-2.794,5.563-5.611,8.4-8.363a1.685,1.685,0,0,0,.489-1.974,14.061,14.061,0,0,0-3.413-6.444c-1.931-1.892-4.321-2.092-6.6-2.791-.313-.1-.905.43-1.255.781q-15.982,16.033-31.937,32.092c-1.283,1.291-2.562,2.585-3.855,3.866-1.2,1.191-2.44,1.309-3.353.34-.857-.91-.71-2.122.434-3.272q16.568-16.671,33.143-33.335c1.377-1.385,2.76-2.765,4.131-4.156a2.563,2.563,0,0,1,2.9-.658c1.893.618,3.849,1.042,5.746,1.649a7.064,7.064,0,0,1,2.034,1.147,16.12,16.12,0,0,1,6.2,10.307C3223.979-3533.72,3224.241-3533.008,3224.5-3532.09Z" transform="translate(-3118.062 3548.827)" fill="#8522fa"/>
        <path id="Path_2784" data-name="Path 2784" d="M3196.021-3473.86c-.69-.531-1.489-.859-1.754-1.433a3.524,3.524,0,0,1,.073-2.1c.092-.375.554-.67.867-.982q17.373-17.278,34.75-34.549a7.669,7.669,0,0,1,.773-.73,2.055,2.055,0,0,1,2.778.195,1.988,1.988,0,0,1,.127,2.674,6.433,6.433,0,0,1-.819.871q-17.375,17.275-34.761,34.537A19.128,19.128,0,0,1,3196.021-3473.86Z" transform="translate(-3136.712 3524.15)" fill="#8522fa"/>
        <path id="Path_2785" data-name="Path 2785" d="M3138.768-3364.572a3.692,3.692,0,0,1-3.489-4.342q2.022-7.71,4.125-15.4c.4-1.459,1.392-2.088,2.638-1.766a2.064,2.064,0,0,1,1.344,2.759c-.742,2.918-1.506,5.832-2.321,8.73a1.792,1.792,0,0,0,.535,2c2.5,2.478,2.478,2.494,5.881,1.612,2.187-.566,4.373-1.134,6.566-1.671a2.061,2.061,0,0,1,2.614,1.417,2.016,2.016,0,0,1-1.512,2.57c-5.272,1.37-10.556,2.691-15.838,4.025A3.228,3.228,0,0,1,3138.768-3364.572Z" transform="translate(-3093.469 3430.284)" fill="#8522fa"/>
      </g>
    </g>
  </g>
</svg>
