<svg xmlns="http://www.w3.org/2000/svg" width="95.773" height="114.359" viewBox="0 0 95.773 114.359">
  <g id="Group_504" data-name="Group 504" transform="translate(-2324 3697.579)">
    <rect id="Rectangle_518" data-name="Rectangle 518" width="38.486" height="11.848" rx="5.924" transform="translate(2339.351 -3618.829)" fill="#5d11f8" opacity="0.402"/>
    <rect id="Rectangle_519" data-name="Rectangle 519" width="47.531" height="11.848" rx="5.924" transform="translate(2328.93 -3657.799)" fill="#5d11f8" opacity="0.402"/>
    <rect id="Rectangle_520" data-name="Rectangle 520" width="43.313" height="9.509" rx="4.754" transform="translate(2376.461 -3636.931)" fill="#5d11f8" opacity="0.402"/>
    <rect id="Rectangle_521" data-name="Rectangle 521" width="13.162" height="6.216" rx="3.108" transform="translate(2324 -3649.266)" fill="#8522fa"/>
    <rect id="Rectangle_522" data-name="Rectangle 522" width="6.216" height="11.47" rx="3.108" transform="translate(2368.343 -3689.464)" fill="#8522fa"/>
    <path id="Path_2788" data-name="Path 2788" d="M2412.829-3570.3h-26.2c-.222-6.312-3.375-11.435-6.434-16.592-3.172-5.351-6.135-10.752-7.146-17.045a25.307,25.307,0,0,1,22.228-29.521,31.863,31.863,0,0,1,14.686,1.427c13.536,4.756,20.18,18.8,15.216,33.009-1.687,4.827-4.644,9.2-6.856,13.859-1.822,3.838-3.449,7.771-5.052,11.707A13.291,13.291,0,0,0,2412.829-3570.3Z" transform="translate(-28.52 -37.386)" fill="none" stroke="#8522fa" stroke-miterlimit="10" stroke-width="7"/>
    <path id="Path_2789" data-name="Path 2789" d="M2417.619-3467.466c-3.7,0-7.409-.007-11.114,0-2.025.005-3.415-.651-3.385-2.383s1.483-2.313,3.482-2.31q11.113.021,22.228,0c2.025,0,3.413.653,3.384,2.383s-1.482,2.319-3.481,2.31C2425.028-3467.479,2421.323-3467.466,2417.619-3467.466Z" transform="translate(-46.331 -132.002)" fill="#8522fa"/>
    <path id="Path_2790" data-name="Path 2790" d="M2418.425-3453.121c3.529,0,7.058.011,10.587,0,2.017-.009,3.427.628,3.429,2.351s-1.431,2.345-3.437,2.343q-10.588-.013-21.174,0c-2.005,0-3.431-.608-3.423-2.35s1.419-2.353,3.432-2.344C2411.367-3453.11,2414.9-3453.121,2418.425-3453.121Z" transform="translate(-47.084 -143.147)" fill="#8522fa"/>
    <path id="Path_2791" data-name="Path 2791" d="M2350.543-3625.562l-.194.27a3.074,3.074,0,0,1-4.283.7l-5.333-3.821a3.071,3.071,0,0,1-.71-4.284l.19-.267a3.071,3.071,0,0,1,4.285-.711l5.363,3.838A3.066,3.066,0,0,1,2350.543-3625.562Z" transform="translate(-9.047 -37.085)" fill="#8522fa"/>
    <path id="Path_2792" data-name="Path 2792" d="M2518.782-3628.419l-5.33,3.825a3.072,3.072,0,0,1-4.278-.691l-.2-.272a3.071,3.071,0,0,1,.7-4.295l5.334-3.823a3.072,3.072,0,0,1,4.285.706l.191.267A3.071,3.071,0,0,1,2518.782-3628.419Z" transform="translate(-107.978 -37.084)" fill="#8522fa"/>
    <path id="Path_2793" data-name="Path 2793" d="M2346.375-3530.26l-6.01,2.707a3.07,3.07,0,0,1-4.055-1.525l-.138-.3a3.071,3.071,0,0,1,1.537-4.07l6.01-2.7a3.073,3.073,0,0,1,4.057,1.528l.135.3A3.071,3.071,0,0,1,2346.375-3530.26Z" transform="translate(-6.966 -94.368)" fill="#8522fa"/>
    <rect id="Rectangle_523" data-name="Rectangle 523" width="12.912" height="6.142" rx="3.071" transform="translate(2405.295 -3649.251)" fill="#8522fa"/>
    <path id="Path_2794" data-name="Path 2794" d="M2518.4-3526.817l-5.923-2.4a3.071,3.071,0,0,1-1.694-3.991l.118-.295a3.071,3.071,0,0,1,4-1.7l5.927,2.387a3.073,3.073,0,0,1,1.7,4l-.125.308A3.071,3.071,0,0,1,2518.4-3526.817Z" transform="translate(-109.248 -94.951)" fill="#8522fa"/>
    <path id="Path_2795" data-name="Path 2795" d="M2386.542-3656.854l-.286.153a3.07,3.07,0,0,1-4.154-1.25l-2.8-5.2a3.064,3.064,0,0,1,1.255-4.128l.284-.154a3.071,3.071,0,0,1,4.167,1.245l2.783,5.174A3.071,3.071,0,0,1,2386.542-3656.854Z" transform="translate(-32.175 -17.435)" fill="#8522fa"/>
    <path id="Path_2796" data-name="Path 2796" d="M2475.208-3661.012l2.765-5.159a3.072,3.072,0,0,1,4.137-1.269l.285.15a3.072,3.072,0,0,1,1.275,4.163l-2.759,5.162a3.073,3.073,0,0,1-4.135,1.274l-.292-.153A3.071,3.071,0,0,1,2475.208-3661.012Z" transform="translate(-88.331 -17.442)" fill="#8522fa"/>
    <path id="Path_2797" data-name="Path 2797" d="M2434.05-3434.029c-6.776,7.04-14.758,6.658-20.611,0Z" transform="translate(-52.374 -154.329)" fill="#8522fa"/>
    <circle id="Ellipse_28" data-name="Ellipse 28" cx="1.927" cy="1.927" r="1.927" transform="translate(2324 -3636.931)" fill="#8522fa" opacity="0.497"/>
    <circle id="Ellipse_29" data-name="Ellipse 29" cx="1.927" cy="1.927" r="1.927" transform="translate(2369.316 -3697.578)" fill="#8522fa" opacity="0.497"/>
    <circle id="Ellipse_30" data-name="Ellipse 30" cx="1.927" cy="1.927" r="1.927" transform="translate(2400.411 -3614.831)" fill="#8522fa" opacity="0.497"/>
  </g>
</svg>
