<svg xmlns="http://www.w3.org/2000/svg" width="126.81" height="111.297" viewBox="0 0 126.81 111.297">
  <g id="Group_682" data-name="Group 682" transform="translate(-5520.317 23141.449)">
    <rect id="Rectangle_509" data-name="Rectangle 509" width="73.409" height="16.435" rx="8.218" transform="translate(5570.526 -23118.264)" fill="#d11b28" opacity="0.4"/>
    <rect id="Rectangle_510" data-name="Rectangle 510" width="49.705" height="16.435" rx="8.218" transform="translate(5525.789 -23085.457)" fill="#d11b28" opacity="0.4"/>
    <rect id="Rectangle_511" data-name="Rectangle 511" width="86.633" height="13.191" rx="6.595" transform="translate(5560.494 -23049.145)" fill="#d11b28" opacity="0.4"/>
    <path id="Path_2898" data-name="Path 2898" d="M3960.756-4319.251h-84.164v-54.108l-.192-.038-4.6,8.373-5.646-3.091c.106-.232.143-.329.192-.418q10.951-20,21.922-40a2.654,2.654,0,0,1,1.095-.985q14.253-7.24,28.52-14.451a1.549,1.549,0,0,1,1.6.01q14.255,7.236,28.518,14.456a3.182,3.182,0,0,1,1.241,1.255q10.691,19.446,21.335,38.918c.193.352.433.679.651,1.018v.205l-5.685,3.068-4.6-8.369-.186.054Zm-17.014-49.058v42.477h10.492c.017-.361.04-.632.04-.9q0-29.044-.016-58.09a3.389,3.389,0,0,0-.421-1.54q-4.642-8.561-9.353-17.084a3.022,3.022,0,0,0-1.192-1.169c-7.912-4.037-15.844-8.032-23.76-12.061a1.671,1.671,0,0,0-1.71-.006c-7.915,4.03-15.848,8.025-23.76,12.063a3.027,3.027,0,0,0-1.2,1.165q-4.67,8.429-9.251,16.906a4.454,4.454,0,0,0-.523,2.025q-.041,28.738-.022,57.475v1.253h10.562v-42.508Zm-38.9,6.45,13.832,13.521,13.82-13.521Zm-4.666,31.606,13.86-13.554-13.86-13.551Zm37.013-27.132-13.886,13.581,13.886,13.571Zm-4.723,31.591-13.8-13.481-13.791,13.481Z" transform="translate(1663.491 -18710.902)" fill="#333"/>
    <circle id="Ellipse_22" data-name="Ellipse 22" cx="2.629" cy="2.629" r="2.629" transform="translate(5520.317 -23067.557)" fill="#d11b28"/>
    <circle id="Ellipse_23" data-name="Ellipse 23" cx="2.673" cy="2.673" r="2.673" transform="translate(5635.873 -23065)" fill="#d11b28"/>
    <circle id="Ellipse_24" data-name="Ellipse 24" cx="2.673" cy="2.673" r="2.673" transform="translate(5579.59 -23141.449)" fill="#d11b28"/>
  </g>
</svg>
