<svg xmlns="http://www.w3.org/2000/svg" width="128.318" height="105.496" viewBox="0 0 128.318 105.496">
  <g id="Group_683" data-name="Group 683" transform="translate(-5520.317 23141.449)">
    <g id="Group_682" data-name="Group 682">
      <rect id="Rectangle_509" data-name="Rectangle 509" width="73.409" height="16.435" rx="8.218" transform="translate(5570.526 -23118.264)" fill="#d11b28" opacity="0.4"/>
      <rect id="Rectangle_510" data-name="Rectangle 510" width="49.705" height="16.435" rx="8.218" transform="translate(5532.789 -23081.457)" fill="#d11b28" opacity="0.4"/>
      <rect id="Rectangle_511" data-name="Rectangle 511" width="86.633" height="13.191" rx="6.595" transform="translate(5560.494 -23049.145)" fill="#d11b28" opacity="0.4"/>
      <circle id="Ellipse_22" data-name="Ellipse 22" cx="2.629" cy="2.629" r="2.629" transform="translate(5520.317 -23067.557)" fill="#d11b28"/>
      <circle id="Ellipse_23" data-name="Ellipse 23" cx="2.673" cy="2.673" r="2.673" transform="translate(5635.873 -23062)" fill="#d11b28"/>
      <circle id="Ellipse_24" data-name="Ellipse 24" cx="2.673" cy="2.673" r="2.673" transform="translate(5579.59 -23141.449)" fill="#d11b28"/>
    </g>
    <path id="Path_2899" data-name="Path 2899" d="M3141.377-4377.543c-1.257-.431-1.316-.683-.747-1.974.975-2.208,2.906-2.979,5.045-3.16a7.1,7.1,0,0,0,5.087-2.084,14.436,14.436,0,0,1,4.251-2.553,3.446,3.446,0,0,0,2.057-3.062,9.428,9.428,0,0,0-.99-4.485c-1.244-2.956-2.571-5.878-3.893-8.8-.26-.574-.676-1.074-.972-1.634a3.637,3.637,0,0,1-.368-1.062c-.239-1.366-.4-2.747-.676-4.1-.145-.709-.554-.977-1.386-.679-4.345,1.558-8.6.872-12.793-.671a40.21,40.21,0,0,1-11.74-7.164c-.44-.366-.882-.729-1.4-1.158-.879.827-1.723,1.643-2.595,2.427-.232.209-.568.482-.827.455-2.593-.276-5.213-.514-7.421-2.118a19.209,19.209,0,0,1-1.589-1.452,6.869,6.869,0,0,0-2.841,5.194,28.35,28.35,0,0,0,.175,3.79c.071,1.225.151,2.449.229,3.713,2.162.552,2.762,1.315,2.744,3.761a21.523,21.523,0,0,1-.216,3.614c-.243,1.359-1.092,1.585-2.156.718a5.134,5.134,0,0,1-1.89-3.222,8.744,8.744,0,0,0-2.568-4.9c-.956-.95-1.006-2.74-.352-4.463a35.9,35.9,0,0,0,1.279-4.428c.4-1.69.7-3.407,1.062-5.218a4.754,4.754,0,0,0-2.868.967,8.662,8.662,0,0,0-3.2,5.448c-.393,1.8-.5,3.654-.749,5.484-.074.558.06.927.684,1.056a.985.985,0,0,1,.629.456c.811,1.781,1.473,3.6.985,5.613a3.832,3.832,0,0,1-1.867,2.468,1.4,1.4,0,0,1-2.121-.453,3.872,3.872,0,0,1-.557-1.506c-.2-1.5-.265-3.023-.5-4.52a16.96,16.96,0,0,0-.739-2.511,8.151,8.151,0,0,1,.832-7.552,16.935,16.935,0,0,0,2.511-6.292c.653-3.183,2.23-4.4,5.5-4.143,1.654.13,3.288.508,4.935.745a14.07,14.07,0,0,0,6.038-.281c.614-.179.773-.469.8-1.083.119-3.156.306-6.319,1.664-9.243.545-1.176,1.31-2.248,1.931-3.391,1.854-3.415,3.071-6.99,2.554-10.955a5.472,5.472,0,0,0-2.642-4.256c-1.059.916-2.045,1.759-3.02,2.614a10.1,10.1,0,0,1-4.265,2.33,1.274,1.274,0,0,0-.77.713c-.6,1.786-1.628,2.68-3.065,2.57-2.255-.172-3.59-1.238-3.867-3.152a4.434,4.434,0,0,1,.661-3.406,19.958,19.958,0,0,0,2.409-5.159,35.919,35.919,0,0,1,4.1-8.183,6.173,6.173,0,0,0,.584-2.971c.093-1.2.022-2.4.022-3.708l1.746,1.312c-.151-.943-.282-1.757-.428-2.663a2.786,2.786,0,0,1,.547.237c1.579,1.166,3.273,2.2,4.368,3.918.107.168.583.2.862.145a20.6,20.6,0,0,1,9.279.422,18.843,18.843,0,0,1,7.946,4.56l-3.72-.378c4.61,3.393,9.2,6.623,11.5,12.313l-3.9-1.829-.079.193c.912,1.26,1.914,2.466,2.719,3.792a19.726,19.726,0,0,1,2.909,12.348,1.726,1.726,0,0,0,1.078,1.942,18.368,18.368,0,0,0,6.418,1.515c2.678.3,5.388.452,8.022.977,3.842.765,7.544,2.073,10.278,5.049a5.319,5.319,0,0,0,3.586,1.734,18.657,18.657,0,0,1,13.48,8.345,22.484,22.484,0,0,0,5.195,5.556,8.781,8.781,0,0,0,5.943,1.957c-1.687,1.45-6.11,1.741-9.16.561a8.4,8.4,0,0,0,3.028,3.029,36.858,36.858,0,0,0,11.221,4.59c1.319.338,2.643.658,4.127,1.026a4.422,4.422,0,0,1-.642.35c-4.694,1.518-9.451,2.708-14.438,2.481-3.4-.154-6.627-.848-9.19-3.323a11.954,11.954,0,0,1-3.392-7.93c-.16-1.811-.174-3.634-.364-5.441a10.244,10.244,0,0,0-.688-2.625,2.992,2.992,0,0,0-3.61-1.863.925.925,0,0,0-.522.711c.567,5.259-1.648,9.454-5.1,13.113a28.379,28.379,0,0,1-4.465,3.85,5.489,5.489,0,0,0-2.338,4.008,14.041,14.041,0,0,0,.738,6.347,13.236,13.236,0,0,1,.839,3.68c.022,2.208-1.29,3.568-3.727,4.163a15.349,15.349,0,0,0-9.574,7.278c-.966,1.564-2.364,1.847-3.852,2.148a1.253,1.253,0,0,0-1.092.86c-1.279,3.1-2.014,3.461-5.3,2.6a6.972,6.972,0,0,1-1.913-.787c-.765-.479-.808-1.014-.318-1.778.278-.434.562-.863.838-1.3C3141.387-4377.413,3141.373-4377.484,3141.377-4377.543Z" transform="translate(2439.174 -18664.563)" fill="#333"/>
  </g>
</svg>
