<svg xmlns="http://www.w3.org/2000/svg" width="649.256" height="412.641" viewBox="0 0 649.256 412.641">
  <g id="team" transform="translate(20.893 -33.841)">
    <g id="Group_605" data-name="Group 605" transform="translate(-10150.638 18591.76)" opacity="0.495">
      <rect id="Rectangle_539" data-name="Rectangle 539" width="362" height="61" rx="30.5" transform="translate(10269 -18524)" fill="#5d11f8" opacity="0.395"/>
      <rect id="Rectangle_540" data-name="Rectangle 540" width="353" height="61" rx="30.5" transform="translate(10426 -18406)" fill="#5d11f8" opacity="0.395"/>
      <rect id="Rectangle_541" data-name="Rectangle 541" width="353" height="61" rx="30.5" transform="translate(10152 -18276)" fill="#5d11f8" opacity="0.395"/>
    </g>
    <g id="shadow" transform="translate(-20.893 385.908)">
      <path id="Path_2803" data-name="Path 2803" d="M396.225,648.77c-19.013.048-38.027.436-57.006,2.228-7.156.676-14.162,2.162-21.335,2.762-14.327,1.2-28.4,3.431-42.775,4.462-11.578.83-23.2,1.319-34.75,2.372a143.795,143.795,0,0,1-33.546-.871c-7.951-1.207-15.939-1.887-23.756-3.826a113.076,113.076,0,0,0-27.358-3.664c-12.993.08-25.646.089-38.081,3.919-4.365,1.344-9.708,3.554-13.023,6.376-7.587,6.459-8.615,22.576-1.039,29.275,12.761,11.276,40,15.7,57.883,15.908,19.6.229,38.641-1.006,58.27-1.732,18.24-.675,36.434-1.635,54.7-1.6,37.314.069,74.633,0,111.88-2.116,34.994-1.988,70.076-1.305,105.147-1.305,35.964,0,71.685.24,107.389,4.3,15.557,1.768,31.406,2.387,47.04,3.626,14,1.109,27.458-.022,41.405-1.047a112.93,112.93,0,0,0,33.984-7.731c8.422-3.416,23.436-14.031,26.018-22.187,7.24-22.864-102.039-22.314-118.817-22.263-18.77.057-37.689.582-56.444-.026a155.257,155.257,0,0,1-23.362-3c-7.669-1.429-15.4-1.065-23.175-1.666-32.433-2.5-64.94-2.138-97.477-2.138C417.413,648.822,406.819,648.744,396.225,648.77Z" transform="translate(-98.362 -648.765)" fill="#6459fb" opacity="0.5"/>
    </g>
    <g id="object" transform="translate(130.521 33.839)">
      <g id="Group_519" data-name="Group 519" transform="translate(43.23 164.256)">
        <g id="Group_517" data-name="Group 517" transform="translate(11.18 25.077)">
          <path id="Path_2804" data-name="Path 2804" d="M307.118,381.124a1.782,1.782,0,0,0-.417-.283c-1.4-.6-2.5-.07-4.006-.262-.674-.085-1.43-1.659-2.344-.575-.337.4-1.026,1.5-1.737,2.357a10.017,10.017,0,0,1-4.895,2.676,51.533,51.533,0,0,1-7.4,1.47,87.336,87.336,0,0,1-16.07.09,23.6,23.6,0,0,0-11.919-21.235,5.468,5.468,0,0,0-2.518-.834,4.72,4.72,0,0,0-2.161.607c-7.113,3.642-3.357,10.226-.554,15.657a78.116,78.116,0,0,0,5.973,9.817c3.126,4.336,7.648,5.2,12.856,5.044a77.689,77.689,0,0,0,16.486-1.771,59.117,59.117,0,0,0,7.4-2.724c2.453-.965,2.746.182,5.111-.113a21.461,21.461,0,0,0,3.966-.49c2.279-.732,3.063-3.076,3.95-5.056a2.565,2.565,0,0,0,.338-1.331,3.712,3.712,0,0,0-1.079-2.04A7.22,7.22,0,0,0,307.118,381.124Z" transform="translate(-249.565 -364.53)" fill="#e5d1bd"/>
        </g>
        <g id="Group_518" data-name="Group 518">
          <path id="Path_2805" data-name="Path 2805" d="M242.791,366.676c1.613,2.467,3.3,4.819,5.017,7.019,2.557,3.282,5.439,6.777,9.5,7.689a17.836,17.836,0,0,0,4.791.2q11.39-.565,22.742-1.7a39.614,39.614,0,0,0-.122-11.933,4.882,4.882,0,0,0-1.3-3.021c-1.26-1.088-3.17-.72-4.778-.291l-7.859,2.1a3.529,3.529,0,0,1-2.572.023,3.4,3.4,0,0,1-1.143-1.263c-5.773-9.2-8.781-17.973-11.99-28.262-1.415-4.536-2.915-9.225-6.1-12.754-6.791-7.537-19.368-3.048-18.926,7.438C230.552,343.878,236.008,356.3,242.791,366.676Z" transform="translate(-230.037 -320.73)" fill="#b67afc"/>
        </g>
      </g>
      <g id="Group_528" data-name="Group 528" transform="translate(237.728 110.663)">
        <g id="Group_524" data-name="Group 524" transform="translate(0 144.709)">
          <g id="Group_521" data-name="Group 521" transform="translate(51.003 63.921)">
            <g id="Group_520" data-name="Group 520" transform="translate(0.179)">
              <path id="Path_2806" data-name="Path 2806" d="M659.144,591.516l.394,23.972c-.161,6.651.438,13.282.843,19.911.376,6.158-.866,12.5,2.056,18.212.916,1.789,2.865,3.036,4.349.969,1.143-1.593.617-4.35.9-6.2,2.122-13.9,6.072-27.45,8.042-41.373C677.792,592.424,672.15,592.808,659.144,591.516Z" transform="translate(-659.144 -591.516)" fill="#eacdb0"/>
            </g>
            <path id="Path_2807" data-name="Path 2807" d="M660.372,692.195l-1.541,4,7.584,6.676,6.948.286,2.247-3.666-9.344-8.125Z" transform="translate(-658.831 -634.198)" fill="#292949"/>
          </g>
          <g id="Group_523" data-name="Group 523" transform="translate(13.868 62.735)">
            <g id="Group_522" data-name="Group 522" transform="translate(0.932)">
              <path id="Path_2808" data-name="Path 2808" d="M615,590.864l-4.372,23.575c-1.516,10.546-4.96,20.816-6.477,31.362-.348,2.425-.173,5.077-1.186,7.365-.991,2.238-2.932,2.326-4.644.808-2.295-2.034-1.236-5.668-1.194-8.447.281-18.507-1.175-36.752-1.525-55.29a.825.825,0,0,1,.194-.676.794.794,0,0,1,.567-.11C598.161,589.572,614.9,591.373,615,590.864Z" transform="translate(-595.599 -589.445)" fill="#eacdb0"/>
            </g>
            <path id="Path_2809" data-name="Path 2809" d="M596.375,694.533l-2.4,3.548,5.882,8.215,6.7,1.847,3.016-3.064L602.3,695.055Z" transform="translate(-593.971 -634.366)" fill="#292949"/>
          </g>
          <path id="Path_2810" data-name="Path 2810" d="M645.639,559.045l-3.271-34.273L640.791,502.5l-5.3-18.188-28.635-4.444-35.4,6.068-1.7,6.878,6.813,63.668,34.147,2.559-.463-39.627,5.267,24.562-.224,15.065Z" transform="translate(-569.749 -479.872)" fill="#1a3151"/>
        </g>
        <path id="Path_2811" data-name="Path 2811" d="M585.711,341.838q-.072,1.736-.1,3.468c-.415,23.509.882,47.318,1.031,71.022a263,263,0,0,1,36.7-3.133c2.844-.044,15.773,1.954,17.573.255,2.443-2.3-.243-1.87-.065-4.872.231-3.884-1.635-7.065-.93-11.668.828-5.409,2.476-10.76,3.426-16.169a236.2,236.2,0,0,0,3.422-32.827c.33-9.761-.024-19.883-4.222-28.7-10.351-21.746-43.722-21.355-52.879,1.351C586.956,327.289,586.014,334.57,585.711,341.838Z" transform="translate(-576.494 -259.648)" fill="#fff"/>
        <path id="Path_2812" data-name="Path 2812" d="M644.851,310.028l-9.064,16.518q.711,25.028,1.421,50.057.327,11.535.655,23.069c.076,2.67.142,5.341.227,8.01.038,1.2-.293,3.216.391,4.194,1.484,2.123,6.908,1.461,9.275,1.647a40.785,40.785,0,0,1,10.909,1.866c2.314.848,4.507,2.125,6.948,2.468a2.061,2.061,0,0,0,1.592-.26,2.313,2.313,0,0,0,.609-1.7c.849-11.455.866-23.265,1.5-34.842.5-9.106,1.733-18.284,1.3-27.4a195.043,195.043,0,0,0-3.708-27.917c-1.062-5.451-2.309-11.008-5.31-15.68-3.4-5.3-8.216-7.418-14.147-8.613-2.094-.421-9.891-3.369-8.589,1.392C639.5,305.194,643.261,308.137,644.851,310.028Z" transform="translate(-597.977 -258.343)" fill="#474ebb"/>
        <path id="Path_2813" data-name="Path 2813" d="M597.437,312.638l9.064,16.518c-.19,0-1.15,40.489-1.227,43.222q-.443,15.59-.885,31.18c-.082,2.889.306,6.273-.259,9.112-.789,3.965-4.962,3.184-8.519,3.505-7.779.7-15.969,2.029-23.77,1.635-2.25-.113.711-47.07.707-51.452-.015-15.76-3.267-33.246,4.739-47.538,2.33-4.158,6.436-10.825,10.969-12.878,4.224-1.913,10.271-2.239,14.856-3.311l.239,2.971Z" transform="translate(-570.283 -259.399)" fill="#474ebb"/>
        <g id="Group_527" data-name="Group 527" transform="translate(20.061)">
          <g id="Group_526" data-name="Group 526">
            <path id="Path_2814" data-name="Path 2814" d="M647.915,245.35a18.282,18.282,0,0,1,2.241,8.258,2.62,2.62,0,0,0,.7,2.1c.662.483.08,1.544.583.9s2.213-2.892,2.29-3.708a30.222,30.222,0,0,0-.008-5.752,8.251,8.251,0,0,0-1.589-4.666,9.353,9.353,0,0,0-2.353-1.791,12.031,12.031,0,0,0-3.907-1.754c-2.433-.453-3.925.419-1.779,2.116A14.836,14.836,0,0,1,647.915,245.35Z" transform="translate(-621.15 -232.12)" fill="#292949"/>
            <g id="Group_525" data-name="Group 525" transform="translate(2.822 7.225)">
              <path id="Path_2815" data-name="Path 2815" d="M618.458,278.375c.017,1.177-.225,2.4.814,3.311a3.562,3.562,0,0,0,1.83.719,11.365,11.365,0,0,0,5.1-.362,4.575,4.575,0,0,0,1.858-.98,2.324,2.324,0,0,0,.662-1.884c.034-.887.214-1.789.33-2.689.254-1.968.368-3.952.425-5.934,2.915-.5,6.344-1.443,7.341-4.5a10.04,10.04,0,0,0,.333-3.032q.046-6.346.093-12.692a12.266,12.266,0,0,0-.487-4.329c-.879-2.382-3.114-3.8-5.3-4.7-5.591-2.281-12.108-2.19-17.268,1.054a9.423,9.423,0,0,0-3.46,3.48c-1.219,2.324-1.066,5.194-.877,7.875l.524,7.426c.2,2.847.629,6.124,2.84,7.628,1.174.8,2.69.945,3.7,1.978,1.766,1.8.924,4.5,1.446,6.683A4.292,4.292,0,0,1,618.458,278.375Z" transform="translate(-609.717 -239.743)" fill="#eacdb0"/>
            </g>
            <path id="Path_2816" data-name="Path 2816" d="M638.173,275.893c-.047-.784-.39-3.083-1.569-1.639a2.364,2.364,0,0,0-.4,1.415,5.355,5.355,0,0,1-.155,1.494,2.633,2.633,0,0,1-2.639,1.563,2.57,2.57,0,0,1-1.237-.292,3.857,3.857,0,0,1-.939-.865l-2.063-2.368c-1.183-1.357-3.528-.77-5.121-.562a10.209,10.209,0,0,0-5.174,2c-.151.122-.3.25-.447.378a5.539,5.539,0,0,1-1.146.826,3.535,3.535,0,0,1-4.168-1.322c-.456-.591-.88-1.354-1.588-1.453a1.455,1.455,0,0,0-1.377.837,4.153,4.153,0,0,0-.4,1.736,12.757,12.757,0,0,0,1.108,6.377c2.054,4.2,6.025,4.719,10.017,4.625l4.733-.112c2.884-.068,5.933-.188,8.362-1.864a10.361,10.361,0,0,0,3.939-6.628A16.308,16.308,0,0,0,638.173,275.893Zm-10.552,5.958a5.524,5.524,0,0,1-4.885.566c-.72-.216-.414-1.424.306-1.207a4.439,4.439,0,0,0,3.992-.439C627.67,280.344,628.253,281.426,627.621,281.851Z" transform="translate(-606.894 -247.07)" fill="#292949"/>
            <path id="Path_2817" data-name="Path 2817" d="M636.669,233.021a22.5,22.5,0,0,0,.616-3.125,6.182,6.182,0,0,1-3.06.262l-.007-1.825c0-.506-6.849-.86-7.406-.906-5.207-.427-9.969-.833-14.677,1.961a14.181,14.181,0,0,0-7.217,10.591,21.689,21.689,0,0,0,3.425,13.9c-.015-1.181-.694-3.964-.416-5.085a10.007,10.007,0,0,1,1.095-3.209,13.228,13.228,0,0,1,4.641-4.879,25.726,25.726,0,0,1,10.144-3.418c3.247-.452,7.2-.869,10.412-.009,1.542.413,1.8.8,2.731-.756a26.377,26.377,0,0,0,1.343-3.48Z" transform="translate(-604.788 -227.123)" fill="#292949"/>
          </g>
        </g>
      </g>
      <g id="Group_531" data-name="Group 531" transform="translate(283.342 140.608)">
        <g id="Group_530" data-name="Group 530">
          <g id="Group_529" data-name="Group 529">
            <path id="Path_2818" data-name="Path 2818" d="M676.573,316.975a8.063,8.063,0,0,1-4.175-1.538c-5.009-3.316-7.186-9.379-9.94-14.469-1.642-3.036-3.25-7.54-5.8-9.892-.477-.441-5.954-3.044-5.909-3.215l.278-1.5,1.489.286.883-.605-3.986-2.061,2.617-4.409,5.938-.149c1.73,3.3,2.64,7.128,5.133,9.966,1.055,1.2,2.3,2.219,3.451,3.325,1.98,1.9,3.689,4.052,5.481,6.124,2.295,2.656,5.787,4.821,7.13,8.154.749,1.858,1.982,6.043,1.126,7.906A3.98,3.98,0,0,1,676.573,316.975Z" transform="translate(-649.417 -279.426)" fill="#eacdb0"/>
          </g>
        </g>
        <path id="Path_2819" data-name="Path 2819" d="M688.144,331.321a1.791,1.791,0,0,1,1.012.381,1.747,1.747,0,0,1,.386,1.141c.385,4.716-.346,9.445-1.123,14.112-1.082,6.493-2.458,13.373-7.014,18.124-2.625,2.738-6.872,4.559-10.216,2.769-2.925-1.564-4-5.19-4.452-8.475a49.411,49.411,0,0,1,4.675-28.6,4.1,4.1,0,0,1,1.146-1.573c1.3-.941,5.37.536,6.908.775Z" transform="translate(-656.625 -300.571)" fill="#474ebb"/>
      </g>
      <g id="Group_533" data-name="Group 533" transform="translate(223.435 94.164)">
        <g id="Group_532" data-name="Group 532">
          <path id="Path_2820" data-name="Path 2820" d="M561.431,255.346a5.924,5.924,0,0,0,1.8-6.641q-2.407-6.518-4.813-13.037c-.9-2.44-2.621-5.349-2.652-7.894-.055-4.5,1.548-9.6,2.471-13.987.468-2.227.641-5.376,1.809-7.341.219-.368,3.194-3.041,3.132-3.14l-.456-.895-.887.46-.672-.217,2.134-2.05-2.481-2.3-3.782,1.019c-.473,2.414-.332,5-1.376,7.264-.441.957-1.036,1.833-1.558,2.749-.9,1.573-1.573,3.254-2.317,4.9-.719,1.593-1.753,3.049-2.44,4.627-1.53,3.519-3.037,7.05-4.555,10.575l7.037,22.986A6.06,6.06,0,0,0,561.431,255.346Z" transform="translate(-544.783 -198.307)" fill="#eacdb0"/>
        </g>
        <path id="Path_2821" data-name="Path 2821" d="M579.422,290.622a27.792,27.792,0,0,1-7.751-4.962c-1.016-.942-5.61-9.654-4.774-9.883l-.211.067-.618.23-.083-.009c-1.372-.139-3.846,1.225-5.182,1.65a99.075,99.075,0,0,1-13.1,3.721,41.315,41.315,0,0,0,1.847,11.518c1,3.417,2.706,6.211,4,9.431a82.653,82.653,0,0,0,4.857,9.576c.431.765,4.754,9.668,4.5,9.711,2.506-.429,4.437-2.412,5.976-4.437,3.613-4.755,5.331-11.2,9.866-15.077,3.523-3.014,8.129-3.306,7.678-9.4A31.8,31.8,0,0,1,579.422,290.622Z" transform="translate(-546.032 -231.422)" fill="#474ebb"/>
      </g>
      <g id="Group_534" data-name="Group 534" transform="translate(143.03 124.237)">
        <path id="Path_2822" data-name="Path 2822" d="M470.891,264.254a5.613,5.613,0,0,1-.6,2.141,14.057,14.057,0,0,0-.815,7.051,21.1,21.1,0,0,1,6.806,1.107q.718-2.594,1.435-5.188a2.038,2.038,0,0,1,.333-.77,2.171,2.171,0,0,1,.925-.55,17.828,17.828,0,0,0,5.093-3.1,2.8,2.8,0,0,0,.82-1,3.038,3.038,0,0,0,.149-1.159q-.008-4.691-.015-9.381a1.311,1.311,0,0,0-1.111-1.561l-1.6-.568a1.786,1.786,0,0,0-.483-.171,2.787,2.787,0,0,0-2.421,0,9.57,9.57,0,0,1-2.557.394,13.771,13.771,0,0,1-2.606,9.415.82.82,0,0,1-.529.4.811.811,0,0,1-.608-.341,10.186,10.186,0,0,1-1.783-2.67l-2.588.648a4.687,4.687,0,0,0,1.212,3.926,3.875,3.875,0,0,0,.291.269A1.273,1.273,0,0,1,470.891,264.254Z" transform="translate(-431.846 -250.832)" fill="#eacdb0"/>
        <path id="Path_2823" data-name="Path 2823" d="M452.084,281.191l-10.777-1.765-10.992,30.081-25.967-4.423L410,339.7l33.033-19.784Z" transform="translate(-404.347 -263.055)" fill="#353a85"/>
      </g>
      <g id="Group_544" data-name="Group 544" transform="translate(92.913 111.844)">
        <g id="Group_543" data-name="Group 543">
          <g id="Group_536" data-name="Group 536" transform="translate(0 123.214)">
            <g id="Group_535" data-name="Group 535" transform="translate(0 121.031)">
              <path id="Path_2824" data-name="Path 2824" d="M334.989,672.96c-1.639.109-3.138-.467-4.726-.645a81.593,81.593,0,0,1,1.892-16.53c2.47,2.742,4.55,1.148,4.466,6.3C336.594,663.752,334.668,670.422,334.989,672.96Z" transform="translate(-322.562 -655.785)" fill="#e5d1bd"/>
              <path id="Path_2825" data-name="Path 2825" d="M324.154,679.731c-1.864-.667-2.284,3.783-2.3,4.83a7.78,7.78,0,0,1-.094,1.878,5.021,5.021,0,0,1-1.048,1.774l-2.707,3.4a5.927,5.927,0,0,0-1.036,1.647,3.475,3.475,0,0,0,1.793,4.056c5,2.527,9.571-3.592,10.654-7.631.166-.619.287-1.249.408-1.879.251-1.3,1.236-4.142.719-5.414-.6-1.484-2.429-.409-3.627-.968C325.809,680.909,324.909,680,324.154,679.731Z" transform="translate(-316.813 -665.992)" fill="#292949"/>
            </g>
            <path id="Path_2826" data-name="Path 2826" d="M362.426,490.154c-4.663,12.695-10.044,25.112-13.113,38.4-3.791,16.416-9.9,32.426-13.04,48.879a40.59,40.59,0,0,1-6.072-.258c-2.309-.273-5.974-.9-6.807-3.417-.426-1.289.026-3.384.09-4.723.208-4.287.515-8.57.83-12.851.892-12.111,1.5-24.37,3.731-36.31,2.343-12.56,4.588-25.163,6.649-37.722,1.065-6.49,2.378-12.941,3.992-19.317.416-1.643,4.748-18.578,5.6-18.443a79.429,79.429,0,0,1,28.325,10.161,4.055,4.055,0,0,1,1.976,2.012,3.742,3.742,0,0,1-.247,2.5c-2.627,7.806-6.13,15.126-8.93,22.9C364.435,484.672,363.446,487.377,362.426,490.154Z" transform="translate(-319.549 -444.393)" fill="#5d66d3"/>
          </g>
          <g id="Group_538" data-name="Group 538" transform="translate(40.042 124.031)">
            <g id="Group_537" data-name="Group 537" transform="translate(3.081 120.923)">
              <path id="Path_2827" data-name="Path 2827" d="M393.237,672.578c1.533.591,3.135.487,4.7.789a81.611,81.611,0,0,0,3.109-16.344c-3.174,1.883-4.686-.257-6.138,4.687C394.443,663.31,394.3,670.251,393.237,672.578Z" transform="translate(-392.604 -657.023)" fill="#e5d1bd"/>
              <path id="Path_2828" data-name="Path 2828" d="M399.073,681.017c0,3.042,2.4,6.317,3.723,9.053a1.873,1.873,0,0,1-.305,2.448,3.906,3.906,0,0,1-1.588,1.495,3.722,3.722,0,0,1-2.141-.024q-1.777-.39-3.513-.941a2.434,2.434,0,0,1-.816-.38,2.53,2.53,0,0,1-.6-.877c-.816-1.645-1.511-2.812-1.467-4.644a28.007,28.007,0,0,0-.062-5.729c-.171-.91-.4-2.073.382-2.572.6-.386,1.706.146,2.362.253a8.9,8.9,0,0,1,3.293.725,1.54,1.54,0,0,1,.562.484A1.287,1.287,0,0,1,399.073,681.017Z" transform="translate(-392.132 -666.291)" fill="#292949"/>
            </g>
            <path id="Path_2829" data-name="Path 2829" d="M388.886,484.979c.676,13.507,2.121,26.963,1.1,40.564-1.263,16.8-.189,33.9-2.087,50.545a40.57,40.57,0,0,0,5.874,1.56c2.286.427,5.969.921,7.515-1.238.79-1.1.982-3.239,1.319-4.536,1.076-4.155,2.058-8.335,3.029-12.516,2.75-11.828,5.813-23.715,7.237-35.777,1.5-12.689,3.1-25.389,4.87-37.992.913-6.514,1.578-13.063,1.934-19.631.091-1.692.992-19.15.14-19.273a79.422,79.422,0,0,0-30.065,1.277,4.052,4.052,0,0,0-2.485,1.333,3.742,3.742,0,0,0-.507,2.458c.187,8.235,1.353,16.265,1.715,24.522C388.6,479.148,388.739,482.025,388.886,484.979Z" transform="translate(-386.75 -445.819)" fill="#5d66d3"/>
          </g>
          <path id="Path_2830" data-name="Path 2830" d="M362.07,323.931q-.246.083-.491.176a27.585,27.585,0,0,0-7.284,4.71c-3.394,2.741-5.065,3.943-6.375,8a98.639,98.639,0,0,0-2.736,11.686c-3.842,20.029-4.585,39.975-7.343,60.154-.751,5.493-1.331,11.951,2.732,15.724,7.208-5.61,16.269-5.934,25.011-5.941,6.139-.006,12.142-1.994,18.3-1.309,5.882.655,11.019-.815,16.987-.427,1.439.093,3.273.078,3.84-1.248-2.066-6.191-2.03-12.85-2.5-19.36-1.209-16.84-6.788-33-9.039-49.724-.765-5.685-1.174-15.121-5.576-19.425-4.785-4.676-15.7-4.772-21.847-3.857A21.209,21.209,0,0,0,362.07,323.931Z" transform="translate(-325.572 -269.133)" fill="#353a85"/>
          <g id="Group_542" data-name="Group 542" transform="translate(10.45)">
            <g id="Group_541" data-name="Group 541">
              <g id="Group_540" data-name="Group 540" transform="translate(23.468 14.233)">
                <g id="Group_539" data-name="Group 539" transform="translate(0 6.791)">
                  <path id="Path_2831" data-name="Path 2831" d="M383.2,299.4a2.21,2.21,0,0,0,.417.564,4.8,4.8,0,0,0,2.687,1.245,11.9,11.9,0,0,0,3.9-.275c1.736-.331,1.675-1.348,1.927-2.923.137-.861.223-1.729.289-2.6.036-.476-.149-2.183.155-2.516.206-.227,1.045-.151,1.413-.342a4.053,4.053,0,0,0,1.42-1.41,11.4,11.4,0,0,0,1.18-2.89l1.588-5.212a27.567,27.567,0,0,0,1.258-5.413c.262-2.785-.188-6.716-2.29-8.752-1.917-1.857-4.715-2.508-7.28-2.836a15.168,15.168,0,0,0-9.852,1.991A8.11,8.11,0,0,0,377,271c-1.079,2-1,4.5-.881,6.837q.161,3.234.321,6.469c.124,2.48.432,5.338,2.291,6.683.987.715,2.276.867,3.121,1.783,1.058,1.147.989,2.868,1.034,4.322A5.3,5.3,0,0,0,383.2,299.4Z" transform="translate(-376.053 -265.906)" fill="#eacdb0"/>
                </g>
                <path id="Path_2832" data-name="Path 2832" d="M401.259,266.452a3.625,3.625,0,0,1,.29.63c.4,1.143.128,2.433.515,3.58.613,1.817,2.734,2.91,3.053,4.8.262,1.546-.8,3.017-.885,4.583-.1,1.711,1,3.331.828,5.019a11.18,11.18,0,0,1-1.954,4.7c.271-.364,2.727-.234,3.364-.624a2.578,2.578,0,0,0,1.378-1.989c.289-1.01.065-2.006.515-3.04.551-1.269,1.684-2.2,2.081-3.554.542-1.847-.441-3.8-.365-5.719.116-2.911,2.633-5.654,1.719-8.42-.536-1.623-2.112-2.661-3-4.122a22.062,22.062,0,0,1-1.388-3.629,4.326,4.326,0,0,0-2.514-2.79,21.276,21.276,0,0,0-2.145-.252c-1.225-.228-2.243-1.074-3.424-1.473-1.689-.571-4.668,1.136-5.654,2.568s-.485,2.629.516,3.885C395.858,262.7,399.884,264.073,401.259,266.452Z" transform="translate(-383.36 -254.046)" fill="#292949"/>
              </g>
              <path id="Path_2833" data-name="Path 2833" d="M362.949,256a32.3,32.3,0,0,0-3.186,2.147c-1.8,1.691-2.144,4.4-2.209,6.868-.058,2.2-1.02,4.155-.782,6.448a5.611,5.611,0,0,0,2.067,4.006c1.561,1.132,4.011,1.318,4.707,3.116.756,1.953-1.266,4.413-.038,6.109.677.936,2.005,1.073,2.975,1.7a8.538,8.538,0,0,1,2.3,3.062c.66,1.107,1.652,2.216,2.941,2.244a10.747,10.747,0,0,0-.728-5.307c-.487-1.044-1.924-2.971-.82-4.1.7-.94,2.338-1.246,2.381-2.414a2.7,2.7,0,0,0-.665-1.475,6.725,6.725,0,0,1-.5-6.112,8.742,8.742,0,0,1,4.34-4.474c2.242-1.086,1.881-1.633,2.532-3.78.6-1.975,1.72-2.438,3.5-3.159,1.6-.646,2.11-1.049,2.7-2.543.431-1.094.962-2.4.337-3.624a7.374,7.374,0,0,0-2.259-2.325c-1.81-1.38-3.845-2.831-6.115-2.668-1.261.091-2.447.684-3.71.755-.842.048-1.679-.139-2.522-.167a6.706,6.706,0,0,0-4.116,1.244c-1.174.863-1.141,1.766-1.792,2.991A4.385,4.385,0,0,1,362.949,256Z" transform="translate(-344.327 -237.958)" fill="#292949"/>
              <path id="Path_2834" data-name="Path 2834" d="M358.771,239.167c.221-1.366.079-3.146-1.225-3.607-.715-.253-1.516.024-2.258-.127-1.583-.322-2.122-2.239-2.953-3.625a1.2,1.2,0,0,0-.493-.516,1.946,1.946,0,0,0-1.021.026c-1.575.192-2.772-1.362-4.256-1.926a3.724,3.724,0,0,0-4.7,2.335c-.227.775-.188,1.607-.4,2.385-.865,3.154-5.483,4.5-5.6,7.764-.079,2.208,2.082,4.324,1.242,6.368-.537,1.307-2.219,2.2-2.026,3.6a1.95,1.95,0,0,0,1.992,1.5,3.915,3.915,0,0,0,2.429-1.11c1.087-.949,1.906-2.167,2.941-3.172a4.92,4.92,0,0,1,3.848-1.641c1.387.173,2.642,1.253,4.02,1.022,1.1-.185,1.921-1.169,3-1.446a10.188,10.188,0,0,1,3.111.2c1.044.063,2.326-.48,2.354-1.526a2.625,2.625,0,0,1,.015-.756c.223-.674,1.374-.635,1.593-1.311-.545-.84-1.313-.539-1.7-1.636A6.034,6.034,0,0,1,358.771,239.167Z" transform="translate(-335.064 -229.186)" fill="#292949"/>
            </g>
          </g>
        </g>
      </g>
      <g id="Group_551" data-name="Group 551" transform="translate(121.239 184.584)">
        <g id="Group_549" data-name="Group 549">
          <g id="Group_548" data-name="Group 548">
            <g id="Group_547" data-name="Group 547">
              <g id="Group_545" data-name="Group 545">
                <rect id="Rectangle_528" data-name="Rectangle 528" width="214.924" height="149.219" fill="#8cabef"/>
              </g>
              <g id="Group_546" data-name="Group 546" transform="translate(5.01 4.744)">
                <path id="Path_2835" data-name="Path 2835" d="M426.338,364.52h-51.3V410.1C375.038,384.928,398.005,364.52,426.338,364.52Z" transform="translate(-375.038 -364.52)" fill="#dddae8" opacity="0.2"/>
              </g>
            </g>
          </g>
        </g>
        <g id="Group_550" data-name="Group 550" transform="translate(93.945 72.83)" opacity="0.2">
          <path id="Path_2836" data-name="Path 2836" d="M530.372,559.828H651.351V483.439S640.175,559.828,530.372,559.828Z" transform="translate(-530.372 -483.439)" fill="#3b3387"/>
        </g>
      </g>
      <g id="Group_552" data-name="Group 552" transform="translate(314.078 80.462)">
        <path id="Path_2837" data-name="Path 2837" d="M703.129,174.538c-.01-.054-.017-.109-.027-.164.033.027.062.057.094.084C703.174,174.485,703.151,174.51,703.129,174.538Z" transform="translate(-703.102 -174.374)" fill="gray" opacity="0.49"/>
      </g>
      <g id="Group_564" data-name="Group 564" transform="translate(0 110.862)">
        <g id="Group_555" data-name="Group 555" transform="translate(8.202 120.29)">
          <g id="Group_553" data-name="Group 553" transform="translate(5.503 145.737)">
            <path id="Path_2838" data-name="Path 2838" d="M178.814,696.949l-.344,4.835,9.326,5.524,5.179-4.491-4.491-5.18-9.326-5.524Z" transform="translate(-178.469 -692.114)" fill="#292949"/>
          </g>
          <g id="Group_554" data-name="Group 554">
            <path id="Path_2839" data-name="Path 2839" d="M169.9,441.1l-1.045,14.685,15.05,65.028-9.6,65.733,9.455,2.6L211.7,510.493l.942-23.816-5.591-49.107Z" transform="translate(-168.858 -437.57)" fill="#292949"/>
          </g>
        </g>
        <g id="Group_558" data-name="Group 558" transform="translate(31.781 130.155)">
          <g id="Group_556" data-name="Group 556">
            <path id="Path_2840" data-name="Path 2840" d="M248.217,457.134l5.975,61.588L249.359,599.2l-8.933.763-11.9-72.862L210.04,454.8Z" transform="translate(-210.04 -454.8)" fill="#292949"/>
          </g>
          <g id="Group_557" data-name="Group 557" transform="translate(30.347 143.27)">
            <path id="Path_2841" data-name="Path 2841" d="M263.043,705.86l.412,4.83,10.072,4.005,4.418-5.242-5.242-4.418Z" transform="translate(-263.043 -705.036)" fill="#292949"/>
          </g>
        </g>
        <g id="Group_559" data-name="Group 559" transform="translate(0 46.127)">
          <path id="Path_2842" data-name="Path 2842" d="M155.189,393.417c-.706,5.6-1.315,13.188.813,13.688a1.966,1.966,0,0,0,1.181-.222c3.941-1.649,6.878-4.242,10.759-5.828a42.585,42.585,0,0,1,12.993-2.619,122.193,122.193,0,0,1,19.87.012,156.137,156.137,0,0,1,15.456,2.393c4.253.8,8.112,2.488,12.514,2.639a28.249,28.249,0,0,0,13.139-2.716.759.759,0,0,0,.382-.3.77.77,0,0,0-.006-.531c-.654-2.6-1.054-5.153-2.5-7.4a46.024,46.024,0,0,1-3.694-8.372,127.456,127.456,0,0,1-5.6-17.891c-2.125-8.272-4.692-16.38-6.716-24.667-1.4-5.744-2.621-11.569-4.76-17.1-1.675-4.33-4.8-10.725-9.119-13a14.106,14.106,0,0,0-4.782-1.219l-14.922-1.984a12.182,12.182,0,0,0-5.437.1c-2.6.865-4.277,3.329-5.757,5.636a120.11,120.11,0,0,0-14.6,33.682c-1.684,6.231-3.293,12.482-4.694,18.779-1.563,7.027-2.871,14.113-3.734,21.256C155.881,388.541,155.524,390.755,155.189,393.417Z" transform="translate(-154.531 -308.036)" fill="#b67afc"/>
        </g>
        <g id="Group_560" data-name="Group 560" transform="translate(26.031 46.392)">
          <path id="Path_2843" data-name="Path 2843" d="M214.162,336.859a41.016,41.016,0,0,1-1.5,8.4L200,395.755l40.224,3.822q.269-9.679.539-19.357a91.155,91.155,0,0,0-.219-12.406c-.723-6.641-2.892-13.048-5.047-19.394l-11.947-35.177a3.479,3.479,0,0,0-3.044-2.817c-3.76-1.063-8.026-2.074-11.932-1.909-1.326,3.4,1.591,9.862,2.568,13.258C212.559,326.715,214.355,331.659,214.162,336.859Z" transform="translate(-199.997 -308.499)" fill="#f7f7f7"/>
        </g>
        <g id="Group_563" data-name="Group 563" transform="translate(23.245)">
          <g id="Group_561" data-name="Group 561" transform="translate(8.23 18.064)">
            <path id="Path_2844" data-name="Path 2844" d="M223.229,291.6l-8.292-1.227a41.925,41.925,0,0,1,.771-6.632c-.053.266-4.253-2.538-4.591-3.111-.973-1.647-.838-4.23-1.12-6.1-.6-3.981-1.09-8.444,1.316-11.672,2.492-3.343,7.209-4.086,11.366-3.764,5.219.4,10.874,2.525,13.087,7.269,2,4.285-1.669,9.918-2.983,14.094-.648,2.059-1.552,4.391-3.6,5.076-1.087.364-2.34.182-3.336.75C224.094,287.281,224.2,289.824,223.229,291.6Z" transform="translate(-209.506 -259.022)" fill="#eacdb0"/>
          </g>
          <g id="Group_562" data-name="Group 562">
            <path id="Path_2845" data-name="Path 2845" d="M238.623,246.011q.912-4.267,1.825-8.535a7.505,7.505,0,0,0,.212-3.207,5.613,5.613,0,0,0-3.685-3.634c-1.676-.646-3.491-.852-5.2-1.418-1.821-.6-3.546-1.621-5.46-1.735-3.641-.216-6.764,2.857-10.406,3.058-5.042.278-9.361-2.468-12.962,3.059-.661,1.015-.942,2.234-1.542,3.287a24.1,24.1,0,0,1-3.057,3.55c-4.5,5.2-4.121,13.854.14,19.1,2.065,2.546,2.791,4.729,5.89,5.8-1.147-3.107,1.995-14.683,6.114-15.591,1.091-.24,4.124,1.379,5.274,1.671a31.18,31.18,0,0,1,7.35,2.583,37.814,37.814,0,0,0,11.148,4.036,1.455,1.455,0,0,0,2.079-1.37Z" transform="translate(-195.131 -227.471)" fill="#292949"/>
          </g>
        </g>
      </g>
      <g id="Group_567" data-name="Group 567" transform="translate(211.722)">
        <g id="Group_566" data-name="Group 566">
          <path id="Path_2846" data-name="Path 2846" d="M524.6,101.705a24.192,24.192,0,0,1,20.08-27.461c-.079-.41-.155-.821-.218-1.238A29.341,29.341,0,0,1,592.49,46.313a27.132,27.132,0,0,1,49.4,9.162c.6-.137,1.205-.259,1.823-.352A24.2,24.2,0,0,1,658.1,100.7,23.413,23.413,0,0,1,638.7,136.4l3.7,24.771c.145,1.076-1.17,1.712-1.641,1.223l-19-19.68a23.4,23.4,0,0,1-33.984-2.816,26.144,26.144,0,0,1-42.844-16.011c-.093-.621-.155-1.24-.2-1.856A24.205,24.205,0,0,1,524.6,101.705Z" transform="translate(-524.326 -33.839)" fill="#8522fa"/>
          <g id="Group_565" data-name="Group 565" transform="translate(43.987 55.229)">
            <path id="Path_2847" data-name="Path 2847" d="M603.432,144.864c3.534-.528,4.361,4.963.821,5.492S599.892,145.394,603.432,144.864Z" transform="translate(-601.155 -136.512)" fill="#fff"/>
            <path id="Path_2848" data-name="Path 2848" d="M646.6,138.408c3.534-.528,4.361,4.963.821,5.492S643.059,138.938,646.6,138.408Z" transform="translate(-619.607 -133.752)" fill="#fff"/>
            <path id="Path_2849" data-name="Path 2849" d="M700.558,130.338c3.534-.528,4.362,4.963.822,5.492S697.018,130.868,700.558,130.338Z" transform="translate(-642.672 -130.302)" fill="#fff"/>
          </g>
        </g>
      </g>
      <g id="Group_568" data-name="Group 568" transform="translate(147.95 211.598)">
        <path id="Path_2850" data-name="Path 2850" d="M694.34,406.391l-9.054,7.228q2.3,3.53,4.5,7.133c.729,1.206-1.234,2.156-1.956.962-1.374-2.273-2.8-4.513-4.244-6.735l-8.817,7.039c-1.1.875-2.521-.779-1.421-1.657l9.04-7.218q-2.655-3.993-5.47-7.879c-.821-1.131.823-2.568,1.649-1.428q2.843,3.92,5.521,7.95l8.833-7.051C694.014,403.859,695.44,405.513,694.34,406.391Z" transform="translate(-524.085 -403.417)" fill="#fff"/>
        <path id="Path_2851" data-name="Path 2851" d="M572.373,448.6a61.246,61.246,0,0,0-3.169-11.8c-.32-.849-1.4-.7-1.874-.14a45.842,45.842,0,0,0-7.04,11.106c-.476,1.053.949,1.831,1.736,1.2a26.734,26.734,0,0,0,2.835-2.652c-5.014,16.074-9.867,35.834-28.008,39.55-16.226,3.324-25.375-14.8-32.414-26.315-6.038-9.883-12.447-20.588-22.54-26.793-10.782-6.627-24.056-6.171-35.01-.185C435.841,438.61,427,449.69,427.242,462.665a13.7,13.7,0,0,0-14.091,11.511c-1.056,5.81,1.891,15.218,8.648,14.938a.9.9,0,0,0,.7,1.077,13.3,13.3,0,0,0,16.459-10.63c1.4-7.054-2.318-14.913-9.547-16.575-.743-17.649,17.421-32.534,34.106-32.947,27.572-.683,36.231,30.633,50.809,48.147,4.355,5.233,9.9,9.6,16.893,10.2,6.522.555,12.8-2.129,17.784-6.216,12.119-9.94,14.646-26.171,19.6-40.3a59.309,59.309,0,0,1,1.636,7.159C570.463,450.418,572.6,449.992,572.373,448.6ZM427.819,464.924a1.015,1.015,0,0,0,.464.073c.222.037.443.069.665.12,13.411,3.05,8.806,25.372-4.521,23.257.574-.737.1-2.1-.992-1.765-7.949,2.412-9.39-9.556-7.445-14.516A11.255,11.255,0,0,1,427.819,464.924Z" transform="translate(-412.942 -413.898)" fill="#fff"/>
        <path id="Path_2852" data-name="Path 2852" d="M419.256,509.481a12.436,12.436,0,0,1-.192-2.051c-.158-7.942,3.935-13.229,12.1-11.312,4.206.987,6.649,6.285,6.629,10.244-.014,2.661-.816,5.588-3.064,6.995-3.655,2.289-12.295,2.555-14.739-1.769A6.812,6.812,0,0,1,419.256,509.481Z" transform="translate(-415.557 -442.875)" fill="#6459fb"/>
      </g>
      <g id="Group_569" data-name="Group 569" transform="translate(134.391 64.487)">
        <rect id="Rectangle_529" data-name="Rectangle 529" width="99.478" height="7.036" transform="matrix(0.576, 0.817, -0.817, 0.576, 22.138, 31.341)" fill="#5d11f8"/>
        <rect id="Rectangle_530" data-name="Rectangle 530" width="99.478" height="7.036" transform="matrix(0.576, 0.817, -0.817, 0.576, 33.636, 23.229)" fill="#5d11f8"/>
        <rect id="Rectangle_531" data-name="Rectangle 531" width="99.478" height="7.036" transform="matrix(0.576, 0.817, -0.817, 0.576, 27.887, 27.285)" fill="#fff"/>
        <rect id="Rectangle_532" data-name="Rectangle 532" width="1.898" height="21.108" transform="translate(32.542 21.679) rotate(54.796)" fill="#b67afc"/>
        <rect id="Rectangle_533" data-name="Rectangle 533" width="1.898" height="21.108" transform="matrix(0.576, 0.817, -0.817, 0.576, 31.448, 20.128)" fill="#f7f7f7"/>
        <rect id="Rectangle_534" data-name="Rectangle 534" width="1.898" height="21.108" transform="matrix(0.576, 0.817, -0.817, 0.576, 30.354, 18.577)" fill="#b67afc"/>
        <path id="Rectangle_535" data-name="Rectangle 535" d="M10.554,0H20.838a0,0,0,0,1,0,0V21.108a0,0,0,0,1,0,0H10.554A10.554,10.554,0,0,1,0,10.554v0A10.554,10.554,0,0,1,10.554,0Z" transform="translate(17.247 0) rotate(54.796)" fill="#8522fa" opacity="0.599"/>
        <rect id="Rectangle_536" data-name="Rectangle 536" width="1.898" height="21.108" transform="matrix(0.576, 0.817, -0.817, 0.576, 29.26, 17.027)" fill="#f7f7f7"/>
        <path id="Path_2853" data-name="Path 2853" d="M535.294,329.016l-17.247,12.168,23.619,15.171Z" transform="translate(-444.31 -224.502)" fill="#eed5d5"/>
        <path id="Path_2854" data-name="Path 2854" d="M553.689,365.605l-4.031,2.844,5.52,3.546Z" transform="translate(-457.823 -240.143)" fill="#292949"/>
      </g>
      <g id="Group_571" data-name="Group 571" transform="translate(42.003 206.464)">
        <path id="Path_2855" data-name="Path 2855" d="M236.082,493.776s95.967,4.063,97.164,3.3.491-97.019-3.241-100.7C330,396.379,241.912,487.787,236.082,493.776Z" transform="translate(-231.394 -395.275)" fill="#3b455a" opacity="0.25"/>
        <path id="Path_2856" data-name="Path 2856" d="M326.395,492.951h-98.5a327.448,327.448,0,0,0,3.712-52.315c-.147-15.647-.078-29.166-2.358-44.15,32.833,0,64.313-2.036,97.147-2.036,1.4,13.757,2.328,28.763,2.473,44.861A487.937,487.937,0,0,1,326.395,492.951Z" transform="translate(-227.894 -394.45)" fill="#5d11f8"/>
        <g id="Group_570" data-name="Group 570" transform="translate(14.581 22.049)">
          <path id="Path_2857" data-name="Path 2857" d="M285.16,451.219c-.7-6.465-3-14.044-9.429-16.92-7.349-3.29-15.227.135-21.96,3.275-.926.432-.12,1.8.8,1.373.665-.31,1.347-.626,2.042-.939,1.375,14.521-1.412,29.056-.385,43.585a.878.878,0,0,0,.08,1.026c.027.321.043.642.074.962.1,1.01,1.688,1.02,1.59,0-.033-.347-.052-.7-.081-1.043C270.9,478.082,286.818,466.526,285.16,451.219Zm-11.2,20.151a47.225,47.225,0,0,1-16.2,9.52c-.905-14.519,1.883-29.044.378-43.555,5.613-2.4,11.93-4.242,17.583-1.281,5.99,3.138,8.044,11.74,7.994,17.979C283.667,461.116,278.973,466.831,273.962,471.371Z" transform="translate(-253.361 -432.96)" fill="#fff"/>
          <path id="Path_2858" data-name="Path 2858" d="M319.975,480.978c-2.347-.937-5.526.205-7.486,1.473a13.208,13.208,0,0,0-5.552,8.431c-1.347,6.328.367,14.456,8,15.053,7.349.575,12.909-6.044,13.687-12.871C329.271,487.345,325.817,481.157,319.975,480.978Zm6.841,13.308c-1.139,5.219-5.342,10.1-11.029,10.092-7.04-.007-8.518-7.463-7.317-13.073a12,12,0,0,1,3.73-6.656,10.551,10.551,0,0,1,5.079-2.4.791.791,0,0,0,.91.468,7.97,7.97,0,0,1,1.368-.171,3.123,3.123,0,0,1,.511.3.654.654,0,0,0,.99-.195C325.8,483.546,327.828,489.644,326.815,494.286Z" transform="translate(-276.083 -453.339)" fill="#fff"/>
          <path id="Path_2859" data-name="Path 2859" d="M365.023,512.452a1.222,1.222,0,0,0-.093-.125,1.639,1.639,0,0,0-2.661.627,2.886,2.886,0,0,0-.761,2.141,1.754,1.754,0,0,0,1.7,1.6,2.184,2.184,0,0,0,1.952-1.685,1.663,1.663,0,0,0,.473-1.523A1.728,1.728,0,0,0,365.023,512.452Z" transform="translate(-299.581 -466.683)" fill="#fff"/>
          <path id="Path_2860" data-name="Path 2860" d="M370.148,449.176c-.742-1.317-2.793-1.3-4.119-1.373a.806.806,0,0,0-.795.8q-.408,14.03-.212,28.068a.783.783,0,0,0,.957.756.793.793,0,0,0,1.584-.04,167.043,167.043,0,0,1,1.8-20.724c.232-1.521.488-3.038.758-4.553C370.289,451.179,370.649,450.064,370.148,449.176Zm-3.344.26.2.022a.886.886,0,0,0-.1.324c-.029.29-.077.566-.131.839C366.786,450.226,366.793,449.831,366.8,449.436Zm-.126,5.317a.716.716,0,0,0,.392.139c-.169.855-.35,1.658-.432,2.281Q366.657,455.962,366.678,454.753Z" transform="translate(-301.064 -439.305)" fill="#fff"/>
        </g>
      </g>
      <g id="Group_574" data-name="Group 574" transform="translate(10.886 163.92)">
        <g id="Group_572" data-name="Group 572" transform="translate(4.308 28.192)">
          <path id="Path_2861" data-name="Path 2861" d="M231.471,414.106a1.95,1.95,0,0,0-.231-.5c-.977-1.341-2.29-1.456-3.593-2.475-.581-.455-.411-2.345-1.866-1.842-.538.185-1.792.826-2.934,1.232a10.884,10.884,0,0,1-6.057-.229,55.909,55.909,0,0,1-7.725-2.75,94.89,94.89,0,0,1-15.045-8.865,25.641,25.641,0,0,0,.705-26.453,5.938,5.938,0,0,0-1.885-2.181,5.126,5.126,0,0,0-2.354-.637c-8.665-.563-8.828,7.671-9.237,14.3a84.955,84.955,0,0,0,.106,12.487c.5,5.788,4.24,9.112,9.187,11.867,5.241,2.919,10.6,5.783,16.369,7.529a64.23,64.23,0,0,0,8.424,1.58c2.827.466,2.462,1.7,4.832,2.742a23.415,23.415,0,0,0,3.974,1.752c2.533.586,4.571-1.164,6.5-2.518A2.8,2.8,0,0,0,231.7,418.1a4.038,4.038,0,0,0,.129-2.5A7.826,7.826,0,0,0,231.471,414.106Z" transform="translate(-181.068 -369.382)" fill="#e5d1bd"/>
        </g>
        <g id="Group_573" data-name="Group 573" transform="translate(0 0)">
          <path id="Path_2862" data-name="Path 2862" d="M173.638,365.868c.131,3.2.4,6.335.772,9.344.558,4.486,1.3,9.353,4.581,12.464a19.379,19.379,0,0,0,4.358,2.858q10.943,5.817,22.168,11.079a43.029,43.029,0,0,0,6.533-11.2,5.3,5.3,0,0,0,.465-3.545c-.57-1.716-2.558-2.437-4.3-2.933l-8.5-2.419A3.836,3.836,0,0,1,197.3,380.1a3.686,3.686,0,0,1-.364-1.816c-.263-11.8,1.816-21.661,4.553-33.05,1.206-5.021,2.417-10.231,1.415-15.3-2.139-10.815-16.376-13.63-21.8-3.6C174.914,337.779,173.085,352.411,173.638,365.868Z" transform="translate(-173.545 -320.142)" fill="#b67afc"/>
        </g>
      </g>
      <g id="Group_604" data-name="Group 604" transform="translate(314.006 114.964)">
        <g id="Group_577" data-name="Group 577" transform="translate(0 44.705)">
          <g id="Group_575" data-name="Group 575" transform="translate(0 26.31)">
            <path id="Path_2863" data-name="Path 2863" d="M708.563,388.754a3.358,3.358,0,0,1,1.468-1.142,15.18,15.18,0,0,0,2.741-1.126c.7-.461.524-2.146,2.145-1.506.6.236,1.644.986,2.788,1.423a11.45,11.45,0,0,0,6.054.14,208.81,208.81,0,0,1,23.913-4.136,2.606,2.606,0,0,0,1.306-.351,3.038,3.038,0,0,0,.963-2.067,57.88,57.88,0,0,1,3.247-10.593,21.276,21.276,0,0,1,5.5-8.115,9.77,9.77,0,0,1,9.143-2.227,6.666,6.666,0,0,1,4.832,4.883c1.222,6.131-4.41,10.717-7.787,15.015-3.194,4.066-5.925,7.515-9.269,11.244a4.231,4.231,0,0,1-1.385,1.152,4.42,4.42,0,0,1-1.877.269c-8.1-.107-15.988-.418-23.915,1.225-2.178.452-4.167-.009-6.217.687-1.309.444-1.992,1.742-3.2,2.363a10.78,10.78,0,0,1-3.973,1.343c-2.658.18-4.292-1.773-6.1-3.38a4.14,4.14,0,0,0-4.426-1.154,1.5,1.5,0,0,1-.712.145,1.11,1.11,0,0,1-.662-1.664,2.816,2.816,0,0,1,1.746-1.075,8.639,8.639,0,0,1,2.235-.476,1.368,1.368,0,0,0,.919-.234C708.272,389.169,708.351,388.993,708.563,388.754Z" transform="translate(-702.975 -358.671)" fill="#e5d1bd"/>
          </g>
          <g id="Group_576" data-name="Group 576" transform="translate(48.019)">
            <path id="Path_2864" data-name="Path 2864" d="M800.633,357.074c-4.56-1.726-9.342-2.781-13.787-4.87,1.612-3.87,6.275-19.617,7.078-21.5,3.063-7.2,3.656-10.3,7.878-14.1,9.015-8.113,19.721-2.733,19.281,8.783-.477,12.5-7.176,23.233-14.432,32.9a1.416,1.416,0,0,1-.647.477,1.626,1.626,0,0,1-1.028-.132C803.557,358.077,802.073,357.619,800.633,357.074Z" transform="translate(-786.846 -312.718)" fill="#aab4b5"/>
          </g>
        </g>
        <g id="Group_588" data-name="Group 588" transform="translate(47.717 111.874)">
          <g id="Group_582" data-name="Group 582">
            <g id="Group_581" data-name="Group 581" transform="translate(0 101.304)">
              <g id="Group_580" data-name="Group 580">
                <g id="Group_578" data-name="Group 578" transform="translate(12.018)">
                  <path id="Path_2865" data-name="Path 2865" d="M812.242,654.85a37.036,37.036,0,0,1-4.7-.449c-.808-15.536.66-31.818,1.3-47.427l11.973.639a139.519,139.519,0,0,0-5.923,25.665C814.708,634.659,812.47,654.843,812.242,654.85Z" transform="translate(-807.309 -606.974)" fill="#e5d1bd"/>
                </g>
                <g id="Group_579" data-name="Group 579" transform="translate(0 44.375)">
                  <path id="Path_2866" data-name="Path 2866" d="M798.091,684.519a2.409,2.409,0,0,0-2.223.863c-.381.349-.641.842-1.1,1.091a3.616,3.616,0,0,1-1.458.353c-2.879.289-9.513.169-5.979,4.985,3.21,4.373,11.732,2.632,16.655,1.444a1.692,1.692,0,0,0,.9-.377,2.306,2.306,0,0,0,.5-.977c.562-2.058,1.33-4.627-1.2-5.489-1.079-.368-2.073.347-3.216-.049C800.035,686.037,799.075,684.694,798.091,684.519Z" transform="translate(-786.318 -684.48)" fill="#292949"/>
                </g>
              </g>
            </g>
            <path id="Path_2867" data-name="Path 2867" d="M794.207,540.71l24.417-.473q9.876-47.014,17.387-94.483c.388-2.452.766-5,.059-7.383-1.337-4.5-6.158-7.071-10.775-7.934-7.174-1.34-20.355.526-24.035,7.985-3.888,7.883-3.235,21.962-4.178,30.673A529.541,529.541,0,0,0,794.207,540.71Z" transform="translate(-789.604 -430.035)" fill="#292949"/>
          </g>
          <g id="Group_587" data-name="Group 587" transform="translate(33.585)">
            <g id="Group_586" data-name="Group 586" transform="translate(21.337 101.304)">
              <g id="Group_585" data-name="Group 585">
                <g id="Group_583" data-name="Group 583">
                  <path id="Path_2868" data-name="Path 2868" d="M890.819,654.85a37.035,37.035,0,0,0,4.7-.449c.809-15.536-.659-31.818-1.3-47.427l-11.973.639a139.474,139.474,0,0,1,5.923,25.665C888.353,634.659,890.592,654.843,890.819,654.85Z" transform="translate(-882.246 -606.974)" fill="#e5d1bd"/>
                </g>
                <g id="Group_584" data-name="Group 584" transform="translate(5.891 44.375)">
                  <path id="Path_2869" data-name="Path 2869" d="M900.4,684.519a2.41,2.41,0,0,1,2.223.863c.381.349.641.842,1.1,1.091a3.621,3.621,0,0,0,1.458.353c2.879.289,9.512.169,5.978,4.985-3.209,4.373-11.732,2.632-16.655,1.444a1.694,1.694,0,0,1-.9-.377,2.32,2.32,0,0,1-.5-.977c-.562-2.058-1.33-4.627,1.2-5.489,1.079-.368,2.073.347,3.215-.049C898.453,686.037,899.412,684.694,900.4,684.519Z" transform="translate(-892.536 -684.48)" fill="#292949"/>
                </g>
              </g>
            </g>
            <path id="Path_2870" data-name="Path 2870" d="M887.237,540.71l-24.417-.473q-9.875-47.014-17.387-94.483c-.388-2.452-.766-5-.059-7.383,1.337-4.5,6.159-7.071,10.775-7.934,7.174-1.34,20.355.526,24.034,7.985,3.889,7.883,3.236,21.962,4.179,30.673A529.551,529.551,0,0,1,887.237,540.71Z" transform="translate(-844.978 -430.035)" fill="#292949"/>
          </g>
        </g>
        <g id="Group_589" data-name="Group 589" transform="translate(53.839 41.5)">
          <path id="Path_2871" data-name="Path 2871" d="M845.863,316.3a58.189,58.189,0,0,1,14.357,22.451c5.213,14.633,5.313,30.258,5.361,45.568q.024,7.643.048,15.287c.016,5.014-.428,6.093-5.877,5.432-10.1-1.225-20.593-3.306-29.741-7.793-4.354-2.135-8.422-4.832-12.986-6.513-6.639-2.445-13.446-1.338-20.015-2.929a155.756,155.756,0,0,0,6.356-24.844c1.507-9.145,2.877-19.121,5.086-28.143,1.325-5.414,3.789-10.472,6.3-15.45,1.685-3.346,3.469-6.77,6.33-9.189C829.7,302.895,839.363,310.116,845.863,316.3Z" transform="translate(-797.011 -307.12)" fill="#474ebb"/>
        </g>
        <g id="Group_594" data-name="Group 594" transform="translate(78.028)">
          <g id="Group_591" data-name="Group 591" transform="translate(0 5.666)">
            <g id="Group_590" data-name="Group 590">
              <path id="Path_2872" data-name="Path 2872" d="M840.379,268.082c1.232,2.693,3.246,4.938,4.89,7.4a16.607,16.607,0,0,1,2.6,7.345c.306,2.007,1.024,3.577,3.442,3.92,4.56.648,3.256-3.12,4.292-5.861,1.184-3.133,3.709-5.609,5.473-8.406,5.1-8.081,3.644-24.054-6.955-27.463C842.534,241.293,836.639,259.908,840.379,268.082Z" transform="translate(-839.26 -244.532)" fill="#e5d1bd"/>
            </g>
          </g>
          <g id="Group_592" data-name="Group 592" transform="translate(12.188 8.889)">
            <path id="Path_2873" data-name="Path 2873" d="M867.951,262.667a5.8,5.8,0,0,1,3.738,1.041c.976.883.87,2.811-.418,3.019-1.168.189-2.68-1.029-3.393-.14-.417.52-.051,1.28.265,1.888A11.1,11.1,0,0,1,869.155,276c.48.445,1.229-.017,1.652-.48a24.209,24.209,0,0,0,4.8-7.89,4.835,4.835,0,0,0,1.766,1.71,5.591,5.591,0,0,1,.109-3.4c.99-4.088,1.664-8.877-1.19-12.218a10.621,10.621,0,0,0-6.186-3.247,31.041,31.041,0,0,0-7.07-.221c-1.008.046-2.248.263-2.491,1.195a11.224,11.224,0,0,1,5.6,4.7C866.488,256.794,867.817,262.662,867.951,262.667Z" transform="translate(-860.548 -250.161)" fill="#292949"/>
          </g>
          <g id="Group_593" data-name="Group 593" transform="translate(1.838)">
            <path id="Path_2874" data-name="Path 2874" d="M855.556,246.209q.121.088.237.176a10.03,10.03,0,0,0,3.152,2.027c1.746.487,3.622-.354,5.342.24,1.922.665,3.186,2.963,4.589,4.324a20.329,20.329,0,0,0,8.215,4.8,20.556,20.556,0,0,0,4.817.861,8.513,8.513,0,0,0,2.451-.013c.969-.261.935-.7-.1-1.031-3.235-1.037-4.25-5.581-4.005-8.593.193-2.378,1.013-4.863.106-7.069-.693-1.686-2.18-2.556-3.618-3.52-1.586-1.063-3.305-.777-5.106-1.288-1.879-.534-3.409-2.013-5.325-2.39-2.023-.4-4.046.5-6.071.892a12.563,12.563,0,0,1-5.077-.062,20.381,20.381,0,0,0-4.473-.918,7.325,7.325,0,0,0-5.637,3.255,14.966,14.966,0,0,0-2.405,10.42c-.1-.528,1.677-2.444,2.043-2.855a4.815,4.815,0,0,1,2.884-1.825C850.246,243.324,853.41,244.651,855.556,246.209Z" transform="translate(-842.471 -234.636)" fill="#292949"/>
          </g>
        </g>
        <g id="Group_600" data-name="Group 600" transform="translate(19.421 35.859)">
          <path id="Path_2875" data-name="Path 2875" d="M769.525,529.818l-.616,6.771a3.8,3.8,0,0,0,3.195,4.305l15.887,1.446a3.8,3.8,0,0,0,3.919-3.659l.616-6.771Z" transform="translate(-750.573 -396.673)" fill="#b1b1b2"/>
          <path id="Path_2876" data-name="Path 2876" d="M814.145,344.048c2.167-23.821-13.323-44.7-34.6-46.637s-40.28,15.806-42.447,39.627a46.956,46.956,0,0,0,3.848,23.561h0c8.89,21.086,9.834,38.156,9.834,38.156l19.385,1.764,19.384,1.764s4.01-16.619,16.56-35.754h0A46.96,46.96,0,0,0,814.145,344.048Z" transform="translate(-736.897 -297.267)" fill="#5d11f8" opacity="0.743"/>
          <path id="Path_2877" data-name="Path 2877" d="M758.4,474.455l-2.617,28.764a2.06,2.06,0,0,0,1.7,2.349l35.868,3.263a2.059,2.059,0,0,0,2.1-2l2.617-28.764Z" transform="translate(-744.967 -373.008)" fill="#ddd"/>
          <path id="Path_2878" data-name="Path 2878" d="M824.555,364.761c-11.733,20.528-33.747,51.887-63.423,62.727,0,.07.007.118.007.118l19.385,1.764,19.384,1.764s4.01-16.619,16.56-35.755h0A46.96,46.96,0,0,0,824.5,372.9,48.6,48.6,0,0,0,824.555,364.761Z" transform="translate(-747.256 -326.118)" fill="#3b3387" opacity="0.2"/>
          <g id="Group_595" data-name="Group 595" transform="translate(3.876 4.756)">
            <path id="Path_2879" data-name="Path 2879" d="M745.966,344.708c1.892-20.8,18.483-36.285,37.058-34.6,10.857.988,19.986,7.628,25.322,17.127-4.781-11.817-14.974-20.406-27.444-21.541-18.574-1.69-35.165,13.8-37.058,34.6a40.628,40.628,0,0,0,4.883,23.589A41.161,41.161,0,0,1,745.966,344.708Z" transform="translate(-743.667 -305.573)" fill="#fff" opacity="0.5"/>
          </g>
          <g id="Group_596" data-name="Group 596" transform="translate(23.787 39.944)">
            <path id="Path_2880" data-name="Path 2880" d="M780.433,429.659l.357-55.635,5.952,6.646,6.589-9.547,4.864,10.266,6.92-5.2-9.7,54.838,1.99.181,10.583-59.836-9.046,6.8-5.277-11.137-7.091,10.273-7.741-8.644-.39,60.816Z" transform="translate(-778.444 -367.032)" fill="#f6f7f7"/>
          </g>
          <g id="Group_597" data-name="Group 597" transform="translate(23.787 78.992)">
            <path id="Path_2881" data-name="Path 2881" d="M778.479,465.57l-.035,5.548,1.99.181.044-6.853Q779.485,465.022,778.479,465.57Z" transform="translate(-778.444 -447.721)" fill="#edeced"/>
            <path id="Path_2882" data-name="Path 2882" d="M812.079,437.6l-3.993,22.579,1.99.181,4.443-25.122Q813.316,436.43,812.079,437.6Z" transform="translate(-791.115 -435.235)" fill="#edeced"/>
          </g>
          <g id="Group_598" data-name="Group 598" transform="translate(11.271 108.59)">
            <rect id="Rectangle_537" data-name="Rectangle 537" width="5.334" height="39.826" transform="translate(1.032 5.312) rotate(-84.801)" fill="#c4c4c4"/>
            <rect id="Rectangle_538" data-name="Rectangle 538" width="5.334" height="39.826" transform="matrix(0.091, -0.996, 0.996, 0.091, 0, 16.656)" fill="#c4c4c4"/>
          </g>
          <g id="Group_599" data-name="Group 599" transform="translate(10.837 104.999)">
            <path id="Path_2883" data-name="Path 2883" d="M795.407,506.161l17.918,1.631.549-6.032-11.053-1.005A75.415,75.415,0,0,1,795.407,506.161Z" transform="translate(-772.745 -489.249)" fill="#c2c2c4"/>
            <path id="Path_2884" data-name="Path 2884" d="M823.921,487.858l.65-7.142-.624-.057a53.412,53.412,0,0,1-6.165,6.64Z" transform="translate(-782.309 -480.659)" fill="#c2c2c4"/>
            <path id="Path_2885" data-name="Path 2885" d="M757.506,524.27l35.868,3.263a2.059,2.059,0,0,0,2.1-2l.452-4.966-25.9-2.356a54.754,54.754,0,0,1-14.2,4.263A1.969,1.969,0,0,0,757.506,524.27Z" transform="translate(-755.825 -496.71)" fill="#c2c2c4"/>
            <path id="Path_2886" data-name="Path 2886" d="M808.356,497.122l11.053,1.005.483-5.311-6.139-.559Q811.035,494.918,808.356,497.122Z" transform="translate(-778.28 -485.617)" fill="#b1b1b2"/>
            <path id="Path_2887" data-name="Path 2887" d="M780.624,514.784l25.9,2.356.483-5.311L789.088,510.2A65.792,65.792,0,0,1,780.624,514.784Z" transform="translate(-766.426 -493.286)" fill="#b1b1b2"/>
          </g>
          <path id="Path_2888" data-name="Path 2888" d="M797.215,540.657c-4.912,4.415-13.614,5.094-16.478,5.2l12.317,1.121a3.8,3.8,0,0,0,3.92-3.659Z" transform="translate(-755.637 -401.306)" fill="#9e9e9e"/>
        </g>
        <g id="Group_603" data-name="Group 603" transform="translate(70.062 50.046)">
          <g id="Group_601" data-name="Group 601" transform="translate(0 24.843)">
            <path id="Path_2889" data-name="Path 2889" d="M825.78,404.163a1.676,1.676,0,0,1,.2-.431c.852-1.162,1.992-1.258,3.127-2.14.506-.393.363-2.035,1.627-1.595.467.162,1.554.722,2.545,1.078a9.446,9.446,0,0,0,5.262-.181,48.638,48.638,0,0,0,6.717-2.367c2.205-1.018,4.356-2.152,6.456-3.372,1.75-1.016,4.527-2.181,5.85-3.727,2.237-2.615-.354-8.99-.648-12.256-.308-3.4-.009-13.431,4.585-13.715,7.528-.464,7.646,6.688,7.982,12.448a73.717,73.717,0,0,1-.127,10.844c-.452,5.025-3.709,7.9-8.012,10.281a73.344,73.344,0,0,1-14.239,6.493,55.819,55.819,0,0,1-7.32,1.348c-2.457.4-2.143,1.469-4.2,2.367a20.3,20.3,0,0,1-3.456,1.511c-2.2.5-3.967-1.024-5.639-2.205a2.428,2.428,0,0,1-.915-.918,3.5,3.5,0,0,1-.105-2.176A6.824,6.824,0,0,1,825.78,404.163Z" transform="translate(-825.347 -365.437)" fill="#e5d1bd"/>
          </g>
          <g id="Group_602" data-name="Group 602" transform="translate(24.517)">
            <path id="Path_2890" data-name="Path 2890" d="M887.65,361.3l-12.767,2.475c.273-.053-4.924-19.081-5.195-20.224-1.033-4.364-2.07-8.893-1.186-13.289,1.888-9.387,6.413-11.7,12.114-1.834,5.381,9.31,13.816,20.455,12.145,31.051a1.358,1.358,0,0,1-.224.653,1.383,1.383,0,0,1-.856.387Z" transform="translate(-868.168 -322.047)" fill="#474ebb"/>
          </g>
        </g>
      </g>
    </g>
  </g>
</svg>
