<svg xmlns="http://www.w3.org/2000/svg" width="126.675" height="105.496" viewBox="0 0 126.675 105.496">
  <g id="Group_689" data-name="Group 689" transform="translate(-5532.789 23141.449)">
    <g id="Group_687" data-name="Group 687">
      <g id="Group_685" data-name="Group 685">
        <g id="Group_683" data-name="Group 683">
          <g id="Group_682" data-name="Group 682">
            <rect id="Rectangle_509" data-name="Rectangle 509" width="73.409" height="16.435" rx="8.218" transform="translate(5570.526 -23118.264)" fill="#d11b28" opacity="0.4"/>
            <rect id="Rectangle_510" data-name="Rectangle 510" width="49.705" height="16.435" rx="8.218" transform="translate(5532.789 -23081.457)" fill="#d11b28" opacity="0.4"/>
            <rect id="Rectangle_511" data-name="Rectangle 511" width="86.633" height="13.191" rx="6.595" transform="translate(5560.494 -23049.145)" fill="#d11b28" opacity="0.4"/>
            <circle id="Ellipse_22" data-name="Ellipse 22" cx="2.629" cy="2.629" r="2.629" transform="translate(5540.317 -23059.557)" fill="#d11b28"/>
            <circle id="Ellipse_23" data-name="Ellipse 23" cx="2.673" cy="2.673" r="2.673" transform="translate(5637.873 -23090)" fill="#d11b28"/>
            <circle id="Ellipse_24" data-name="Ellipse 24" cx="2.673" cy="2.673" r="2.673" transform="translate(5579.59 -23141.449)" fill="#d11b28"/>
          </g>
        </g>
      </g>
    </g>
    <g id="Group_688" data-name="Group 688" transform="translate(446.782 -18692.254)">
      <path id="Path_2901" data-name="Path 2901" d="M5184.6-4376.093h1.06q11.472,0,22.944-.008a4.888,4.888,0,0,1,3.21,1.354,2.475,2.475,0,0,1,.824,2.255,2.952,2.952,0,0,1-1.8,1.838,12.764,12.764,0,0,1-6.028.707c-2-.1-3.954-.021-5.951,0-4.719.056-9.443.005-14.163-.007-.694,0-1.029.127-1.269.89-.786,2.5-2.877,3.486-5.216,3.638-3.011.2-6.047.049-9.071,0-3.271-.048-6.542-.147-9.812-.224-.273-.006-.547,0-.82,0-.3-1.074-.529-2.116-.882-3.114a14.413,14.413,0,0,0-16.2-9.492,14.475,14.475,0,0,0-11.649,11.615c-.146.8-.455,1.017-1.243,1.01-4.313-.038-8.627-.01-12.94-.021-4.576-.012-7.44-2.891-7.441-7.463q0-21.246,0-42.492c0-3.527,1.861-6.225,4.956-7.109a8.706,8.706,0,0,1,2.355-.284q18.722-.025,37.444-.008a34.48,34.48,0,0,1,13.19,2.319,24.956,24.956,0,0,1,11.534,9.424c3.773,5.642,5.56,11.968,6.479,18.614a83.139,83.139,0,0,1,.447,16.022C5184.555-4376.5,5184.577-4376.385,5184.6-4376.093ZM5130.19-4414.8q-5.273,0-10.547,0c-1.8,0-2.344.55-2.345,2.358q-.005,10.455,0,20.911c0,1.729.591,2.334,2.3,2.336q10.547.007,21.094,0c1.713,0,2.307-.6,2.307-2.334q.005-10.455,0-20.911c0-1.806-.551-2.357-2.355-2.359Q5135.417-4414.81,5130.19-4414.8Zm19.542,12.816q0,5.227,0,10.454c0,1.734.591,2.335,2.3,2.336q10.5.006,21,0a2.209,2.209,0,0,0,2.346-2.5c-.1-1.491-.2-2.99-.451-4.461a20.042,20.042,0,0,0-6.786-12.244,27.515,27.515,0,0,0-15.9-6.347,2.166,2.166,0,0,0-2.506,2.4Q5149.726-4407.17,5149.732-4401.988Z" fill="#333"/>
      <path id="Path_2902" data-name="Path 2902" d="M5256.565-4155.192a10.611,10.611,0,0,1,11.21,9.946,10.626,10.626,0,0,1-10.252,11.4,10.624,10.624,0,0,1-11.108-10.395A10.6,10.6,0,0,1,5256.565-4155.192Z" transform="translate(-112.875 -218.639)" fill="#333"/>
    </g>
  </g>
</svg>
